<?xml version="1.0" standalone="no"?>
<!DOCTYPE svg PUBLIC "-//W3C//DTD SVG 1.1//EN" "http://www.w3.org/Graphics/SVG/1.1/DTD/svg11.dtd">
<svg width="100%" height="100%" viewBox="0 0 322 292" version="1.1" xmlns="http://www.w3.org/2000/svg" xmlns:xlink="http://www.w3.org/1999/xlink" xml:space="preserve" style="fill-rule:evenodd;clip-rule:evenodd;stroke-linecap:round;stroke-linejoin:round;stroke-miterlimit:1.41421;">
    <g id="Layer1" transform="matrix(1,0,0,1,-37.7953,-49.1339)">
        <g transform="matrix(0.507891,0.00185554,-0.00185554,0.507891,109.893,197.915)">
            <path d="M145.699,196.151L151.557,211.055L139.841,211.055L145.699,196.151Z" style="fill:black;"/>
            <g transform="matrix(1,0,-8.67362e-19,0.537954,-50.0958,128.043)">
                <path d="M195.734,142.527L195.734,170.351" style="fill:none;stroke-width:6.54px;stroke:black;"/>
            </g>
        </g>
        <g transform="matrix(1,0,0,1,79.3909,80.9048)">
            <g transform="matrix(0.455601,0.0016645,-0.00120831,0.330733,37.9838,121.197)">
                <path d="M145.699,196.151L151.557,211.055L139.841,211.055L145.699,196.151Z" style="fill:black;"/>
            </g>
            <g transform="matrix(0.507891,0.00185554,-0.000762159,0.208615,4.82039,159.097)">
                <path d="M195.734,142.527L195.734,170.351" style="fill:none;stroke-width:5.15px;stroke:black;"/>
            </g>
        </g>
        <g transform="matrix(1,0,0,1,78.5755,50.4373)">
            <g transform="matrix(0.455601,0.0016645,-0.00120831,0.330733,37.9838,121.197)">
                <path d="M145.699,196.151L151.557,211.055L139.841,211.055L145.699,196.151Z" style="fill:black;"/>
            </g>
            <g transform="matrix(0.507891,0.00185554,-0.000762159,0.208615,4.82039,159.097)">
                <path d="M195.734,142.527L195.734,170.351" style="fill:none;stroke-width:5.15px;stroke:black;"/>
            </g>
        </g>
        <g transform="matrix(1,0,0,1,13.8042,25.4187)">
            <g transform="matrix(0.455601,0.0016645,-0.00120831,0.330733,37.9838,121.197)">
                <path d="M145.699,196.151L151.557,211.055L139.841,211.055L145.699,196.151Z" style="fill:black;"/>
            </g>
            <g transform="matrix(0.507891,0.00185554,-0.000762159,0.208615,4.82039,159.097)">
                <path d="M195.734,142.527L195.734,170.351" style="fill:none;stroke-width:5.15px;stroke:black;"/>
            </g>
        </g>
        <g transform="matrix(2.83277e-16,1,-1,2.83277e-16,278.532,78.9956)">
            <g transform="matrix(0.455601,0.0016645,-0.00120831,0.330733,37.9838,121.197)">
                <path d="M145.699,196.151L151.557,211.055L139.841,211.055L145.699,196.151Z" style="fill:black;"/>
            </g>
            <g transform="matrix(0.507891,0.00185554,-0.000762159,0.208615,4.82039,159.097)">
                <path d="M195.734,142.527L195.734,170.351" style="fill:none;stroke-width:5.15px;stroke:black;"/>
            </g>
        </g>
        <g transform="matrix(2.83277e-16,1,-1,2.83277e-16,463.71,-31.0644)">
            <g transform="matrix(0.455601,0.0016645,-0.00120831,0.330733,37.9838,121.197)">
                <path d="M145.699,196.151L151.557,211.055L139.841,211.055L145.699,196.151Z" style="fill:black;"/>
            </g>
            <g transform="matrix(0.507891,0.00185554,-0.000762159,0.208615,4.82039,159.097)">
                <path d="M195.734,142.527L195.734,170.351" style="fill:none;stroke-width:5.15px;stroke:black;"/>
            </g>
        </g>
        <g transform="matrix(2.83277e-16,1,-1,2.83277e-16,516.614,-30.815)">
            <g transform="matrix(0.455601,0.0016645,-0.00120831,0.330733,37.9838,121.197)">
                <path d="M145.699,196.151L151.557,211.055L139.841,211.055L145.699,196.151Z" style="fill:black;"/>
            </g>
            <g transform="matrix(0.507891,0.00185554,-0.000762159,0.208615,4.82039,159.097)">
                <path d="M195.734,142.527L195.734,170.351" style="fill:none;stroke-width:5.15px;stroke:black;"/>
            </g>
        </g>
        <g transform="matrix(1,0,0,1,13.8042,4.8616)">
            <g transform="matrix(0.455601,0.0016645,-0.00120831,0.330733,37.9838,121.197)">
                <path d="M145.699,196.151L151.557,211.055L139.841,211.055L145.699,196.151Z" style="fill:black;"/>
            </g>
            <g transform="matrix(0.507891,0.00185554,-0.000762159,0.208615,4.82039,159.097)">
                <path d="M195.734,142.527L195.734,170.351" style="fill:none;stroke-width:5.15px;stroke:black;"/>
            </g>
        </g>
        <g transform="matrix(1,0,0,1,13.8042,-20.6011)">
            <g transform="matrix(0.455601,0.0016645,-0.00120831,0.330733,37.9838,121.197)">
                <path d="M145.699,196.151L151.557,211.055L139.841,211.055L145.699,196.151Z" style="fill:black;"/>
            </g>
            <g transform="matrix(0.507891,0.00185554,-0.000762159,0.208615,4.82039,159.097)">
                <path d="M195.734,142.527L195.734,170.351" style="fill:none;stroke-width:5.15px;stroke:black;"/>
            </g>
        </g>
        <g transform="matrix(1,0,0,1,13.8042,-40.9308)">
            <g transform="matrix(0.455601,0.0016645,-0.00120831,0.330733,37.9838,121.197)">
                <path d="M145.699,196.151L151.557,211.055L139.841,211.055L145.699,196.151Z" style="fill:black;"/>
            </g>
            <g transform="matrix(0.507891,0.00185554,-0.000762159,0.208615,4.82039,159.097)">
                <path d="M195.734,142.527L195.734,170.351" style="fill:none;stroke-width:5.15px;stroke:black;"/>
            </g>
        </g>
        <g transform="matrix(0.988171,0,0,1,15.0357,-84.6288)">
            <g transform="matrix(0.455601,0.0016645,-0.00120831,0.330733,37.9838,121.197)">
                <path d="M145.699,196.151L151.557,211.055L139.841,211.055L145.699,196.151Z" style="fill:black;"/>
            </g>
            <g transform="matrix(0.507891,0.00185554,-0.000762159,0.208615,4.82039,159.097)">
                <path d="M195.734,142.527L195.734,170.351" style="fill:none;stroke-width:5.2px;stroke:black;"/>
            </g>
        </g>
        <g transform="matrix(0.988171,0,0,1,15.0357,-108.657)">
            <g transform="matrix(0.455601,0.0016645,-0.00120831,0.330733,37.9838,121.197)">
                <path d="M145.699,196.151L151.557,211.055L139.841,211.055L145.699,196.151Z" style="fill:black;"/>
            </g>
            <g transform="matrix(0.507891,0.00185554,-0.000762159,0.208615,4.82039,159.097)">
                <path d="M195.734,142.527L195.734,170.351" style="fill:none;stroke-width:5.2px;stroke:black;"/>
            </g>
        </g>
        <g transform="matrix(0.988171,0,0,1,79.807,-108.657)">
            <g transform="matrix(0.455601,0.0016645,-0.00120831,0.330733,37.9838,121.197)">
                <path d="M145.699,196.151L151.557,211.055L139.841,211.055L145.699,196.151Z" style="fill:black;"/>
            </g>
            <g transform="matrix(0.507891,0.00185554,-0.000762159,0.208615,4.82039,159.097)">
                <path d="M195.734,142.527L195.734,170.351" style="fill:none;stroke-width:5.2px;stroke:black;"/>
            </g>
        </g>
        <g transform="matrix(0.988171,0,0,1,143.001,-108.657)">
            <g transform="matrix(0.455601,0.0016645,-0.00120831,0.330733,37.9838,121.197)">
                <path d="M145.699,196.151L151.557,211.055L139.841,211.055L145.699,196.151Z" style="fill:black;"/>
            </g>
            <g transform="matrix(0.507891,0.00185554,-0.000762159,0.208615,4.82039,159.097)">
                <path d="M195.734,142.527L195.734,170.351" style="fill:none;stroke-width:5.2px;stroke:black;"/>
            </g>
        </g>
        <g transform="matrix(1.28854,0,0,1,-16.2353,-65.0208)">
            <g transform="matrix(0.455601,0.0016645,-0.00120831,0.330733,37.9838,121.197)">
                <path d="M145.699,196.151L151.557,211.055L139.841,211.055L145.699,196.151Z" style="fill:black;"/>
            </g>
            <g transform="matrix(0.507891,0.00185554,-0.000762159,0.208615,4.82039,159.097)">
                <path d="M195.734,142.527L195.734,170.351" style="fill:none;stroke-width:4.12px;stroke:black;"/>
            </g>
        </g>
        <g transform="matrix(1,0,0,1,64.7457,-28.5021)">
            <g transform="matrix(2.83277e-16,1,-0.744701,2.10957e-16,139.051,-90.8002)">
                <rect x="233.408" y="92.468" width="4.359" height="45.716" style="fill:rgb(229,212,230);stroke-width:1.13px;stroke:rgb(103,50,141);"/>
            </g>
            <g transform="matrix(1,0,0,0.732743,5.12851,71.2813)">
                <path d="M39.766,97.763L39.766,102.869" style="fill:none;stroke-width:1.14px;stroke:rgb(103,50,141);"/>
            </g>
            <g transform="matrix(1,0,0,0.732743,0.8946,71.2813)">
                <path d="M39.766,97.763L39.766,102.869" style="fill:none;stroke-width:1.14px;stroke:rgb(103,50,141);"/>
            </g>
            <g transform="matrix(1,0,0,0.732743,13.5963,71.2813)">
                <path d="M39.766,97.763L39.766,102.869" style="fill:none;stroke-width:1.14px;stroke:rgb(103,50,141);"/>
            </g>
            <g transform="matrix(1,0,0,0.732743,9.36241,71.2813)">
                <path d="M39.766,97.763L39.766,102.869" style="fill:none;stroke-width:1.14px;stroke:rgb(103,50,141);"/>
            </g>
            <g transform="matrix(1,0,0,0.732743,22.0641,71.2813)">
                <path d="M39.766,97.763L39.766,102.869" style="fill:none;stroke-width:1.14px;stroke:rgb(103,50,141);"/>
            </g>
            <g transform="matrix(1,0,0,0.732743,26.298,71.2813)">
                <path d="M39.766,97.763L39.766,102.869" style="fill:none;stroke-width:1.14px;stroke:rgb(103,50,141);"/>
            </g>
            <g transform="matrix(1,0,0,0.732743,17.8302,71.2813)">
                <path d="M39.766,97.763L39.766,102.869" style="fill:none;stroke-width:1.14px;stroke:rgb(103,50,141);"/>
            </g>
        </g>
        <g transform="matrix(1,0,0,1,32.8466,-32.2343)">
            <g transform="matrix(0.985765,-1.42895e-17,-1.34564e-17,0.983231,64.3092,49.3769)">
                <rect x="36.173" y="142.444" width="4.409" height="4.421" style="fill:rgb(189,222,177);stroke-width:1.02px;stroke:rgb(26,148,40);"/>
            </g>
            <g transform="matrix(1,0,0,1,29.675,46.8185)">
                <g transform="matrix(2.83277e-16,1,-0.744701,2.10957e-16,139.051,-90.8002)">
                    <rect x="233.408" y="92.468" width="4.359" height="45.716" style="fill:rgb(162,199,239);stroke-width:1.13px;stroke:rgb(47,62,160);"/>
                </g>
                <g transform="matrix(1,0,0,0.732743,5.12851,71.2813)">
                    <path d="M39.766,97.763L39.766,102.869" style="fill:none;stroke-width:1.14px;stroke:rgb(47,62,160);"/>
                </g>
                <g transform="matrix(1,0,0,0.732743,0.8946,71.2813)">
                    <path d="M39.766,97.763L39.766,102.869" style="fill:none;stroke-width:1.14px;stroke:rgb(47,62,160);"/>
                </g>
                <g transform="matrix(1,0,0,0.732743,13.5963,71.2813)">
                    <path d="M39.766,97.763L39.766,102.869" style="fill:none;stroke-width:1.14px;stroke:rgb(47,62,160);"/>
                </g>
                <g transform="matrix(1,0,0,0.732743,9.36241,71.2813)">
                    <path d="M39.766,97.763L39.766,102.869" style="fill:none;stroke-width:1.14px;stroke:rgb(47,62,160);"/>
                </g>
                <g transform="matrix(1,0,0,0.732743,22.0641,71.2813)">
                    <path d="M39.766,97.763L39.766,102.869" style="fill:none;stroke-width:1.14px;stroke:rgb(47,62,160);"/>
                </g>
                <g transform="matrix(1,0,0,0.732743,26.298,71.2813)">
                    <path d="M39.766,97.763L39.766,102.869" style="fill:none;stroke-width:1.14px;stroke:rgb(47,62,160);"/>
                </g>
                <g transform="matrix(1,0,0,0.732743,17.8302,71.2813)">
                    <path d="M39.766,97.763L39.766,102.869" style="fill:none;stroke-width:1.14px;stroke:rgb(47,62,160);"/>
                </g>
            </g>
        </g>
        <g transform="matrix(0.632097,0,0,0.632097,-5.84721,76.4203)">
            <g transform="matrix(1.24111,0,0,0.784334,-35.0777,33.2573)">
                <rect x="161.166" y="163.276" width="49.708" height="19.019" style="fill:rgb(242,242,242);stroke-width:1.52px;stroke:rgb(115,115,115);"/>
            </g>
            <text x="166.516px" y="172.066px" style="font-family:Arial;font-size:10.667px;fill:rgb(102,102,102);">JoinT<tspan x="191.417px 197.35px " y="172.066px 172.066px ">ab</tspan>le(2)</text>
        </g>
        <g transform="matrix(0.632097,0,0,0.632097,-4.53556,31.0487)">
            <g transform="matrix(1.15762,0,0,0.784334,-21.6219,33.2573)">
                <rect x="161.166" y="163.276" width="49.708" height="19.019" style="fill:rgb(242,242,242);stroke-width:1.6px;stroke:rgb(115,115,115);"/>
            </g>
            <g transform="matrix(1,0,0,1,1.58204,0)">
                <text x="166.516px" y="172.066px" style="font-family:Arial;font-size:10.667px;fill:rgb(102,102,102);">Linear(9,8)</text>
            </g>
        </g>
        <g transform="matrix(0.632097,0,0,0.632097,1.14883,-12.1719)">
            <g transform="matrix(0.795795,0,0,0.784334,36.6925,33.2573)">
                <rect x="161.166" y="163.276" width="49.708" height="19.019" style="fill:rgb(242,242,242);stroke-width:2px;stroke:rgb(115,115,115);"/>
            </g>
            <g transform="matrix(1,0,0,1,1.58204,0)">
                <text x="166.516px" y="172.066px" style="font-family:Arial;font-size:10.667px;fill:rgb(102,102,102);">T<tspan x="171.85px 177.782px " y="172.066px 172.066px ">an</tspan>H()</text>
            </g>
        </g>
        <g transform="matrix(1,0,0,1,96.8228,-31.3045)">
            <g transform="matrix(1,0,0,1,-18.2473,37.0959)">
                <g transform="matrix(0.455601,0.0016645,-0.00120831,0.330733,37.9838,121.197)">
                    <path d="M145.699,196.151L151.557,211.055L139.841,211.055L145.699,196.151Z" style="fill:black;"/>
                </g>
                <g transform="matrix(0.507891,0.00185554,-0.000762159,0.208615,4.82039,159.097)">
                    <path d="M195.734,142.527L195.734,170.351" style="fill:none;stroke-width:5.15px;stroke:black;"/>
                </g>
            </g>
            <g transform="matrix(1,0,0,1,-18.2473,11.6333)">
                <g transform="matrix(0.455601,0.0016645,-0.00120831,0.330733,37.9838,121.197)">
                    <path d="M145.699,196.151L151.557,211.055L139.841,211.055L145.699,196.151Z" style="fill:black;"/>
                </g>
                <g transform="matrix(0.507891,0.00185554,-0.000762159,0.208615,4.82039,159.097)">
                    <path d="M195.734,142.527L195.734,170.351" style="fill:none;stroke-width:5.15px;stroke:black;"/>
                </g>
            </g>
            <g transform="matrix(1,0,0,1,-18.2473,-8.69648)">
                <g transform="matrix(0.455601,0.0016645,-0.00120831,0.330733,37.9838,121.197)">
                    <path d="M145.699,196.151L151.557,211.055L139.841,211.055L145.699,196.151Z" style="fill:black;"/>
                </g>
                <g transform="matrix(0.507891,0.00185554,-0.000762159,0.208615,4.82039,159.097)">
                    <path d="M195.734,142.527L195.734,170.351" style="fill:none;stroke-width:5.15px;stroke:black;"/>
                </g>
            </g>
            <g transform="matrix(1,0,0,1,-18.2473,-52.3944)">
                <g transform="matrix(0.455601,0.0016645,-0.00120831,0.330733,37.9838,121.197)">
                    <path d="M145.699,196.151L151.557,211.055L139.841,211.055L145.699,196.151Z" style="fill:black;"/>
                </g>
                <g transform="matrix(0.507891,0.00185554,-0.000762159,0.208615,4.82039,159.097)">
                    <path d="M195.734,142.527L195.734,170.351" style="fill:none;stroke-width:5.15px;stroke:black;"/>
                </g>
            </g>
            <g transform="matrix(1.28854,0,0,1,-48.2868,-32.7864)">
                <g transform="matrix(0.455601,0.0016645,-0.00120831,0.330733,37.9838,121.197)">
                    <path d="M145.699,196.151L151.557,211.055L139.841,211.055L145.699,196.151Z" style="fill:black;"/>
                </g>
                <g transform="matrix(0.507891,0.00185554,-0.000762159,0.208615,4.82039,159.097)">
                    <path d="M195.734,142.527L195.734,170.351" style="fill:none;stroke-width:4.12px;stroke:black;"/>
                </g>
            </g>
            <g transform="matrix(1,0,0,1,32.6942,3.73221)">
                <g transform="matrix(2.83277e-16,1,-0.744701,2.10957e-16,139.051,-90.8002)">
                    <rect x="233.408" y="92.468" width="4.359" height="45.716" style="fill:rgb(229,212,230);stroke-width:1.13px;stroke:rgb(103,50,141);"/>
                </g>
                <g transform="matrix(1,0,0,0.732743,5.12851,71.2813)">
                    <path d="M39.766,97.763L39.766,102.869" style="fill:none;stroke-width:1.14px;stroke:rgb(103,50,141);"/>
                </g>
                <g transform="matrix(1,0,0,0.732743,0.8946,71.2813)">
                    <path d="M39.766,97.763L39.766,102.869" style="fill:none;stroke-width:1.14px;stroke:rgb(103,50,141);"/>
                </g>
                <g transform="matrix(1,0,0,0.732743,13.5963,71.2813)">
                    <path d="M39.766,97.763L39.766,102.869" style="fill:none;stroke-width:1.14px;stroke:rgb(103,50,141);"/>
                </g>
                <g transform="matrix(1,0,0,0.732743,9.36241,71.2813)">
                    <path d="M39.766,97.763L39.766,102.869" style="fill:none;stroke-width:1.14px;stroke:rgb(103,50,141);"/>
                </g>
                <g transform="matrix(1,0,0,0.732743,22.0641,71.2813)">
                    <path d="M39.766,97.763L39.766,102.869" style="fill:none;stroke-width:1.14px;stroke:rgb(103,50,141);"/>
                </g>
                <g transform="matrix(1,0,0,0.732743,26.298,71.2813)">
                    <path d="M39.766,97.763L39.766,102.869" style="fill:none;stroke-width:1.14px;stroke:rgb(103,50,141);"/>
                </g>
                <g transform="matrix(1,0,0,0.732743,17.8302,71.2813)">
                    <path d="M39.766,97.763L39.766,102.869" style="fill:none;stroke-width:1.14px;stroke:rgb(103,50,141);"/>
                </g>
            </g>
            <g transform="matrix(1,0,0,1,0.795071,0)">
                <g transform="matrix(0.985765,-1.42895e-17,-1.34564e-17,0.983231,64.3092,49.3769)">
                    <rect x="36.173" y="142.444" width="4.409" height="4.421" style="fill:rgb(189,222,177);stroke-width:1.02px;stroke:rgb(26,148,40);"/>
                </g>
                <g transform="matrix(1,0,0,1,29.675,46.8185)">
                    <g transform="matrix(2.83277e-16,1,-0.744701,2.10957e-16,139.051,-90.8002)">
                        <rect x="233.408" y="92.468" width="4.359" height="45.716" style="fill:rgb(162,199,239);stroke-width:1.13px;stroke:rgb(47,62,160);"/>
                    </g>
                    <g transform="matrix(1,0,0,0.732743,5.12851,71.2813)">
                        <path d="M39.766,97.763L39.766,102.869" style="fill:none;stroke-width:1.14px;stroke:rgb(47,62,160);"/>
                    </g>
                    <g transform="matrix(1,0,0,0.732743,0.8946,71.2813)">
                        <path d="M39.766,97.763L39.766,102.869" style="fill:none;stroke-width:1.14px;stroke:rgb(47,62,160);"/>
                    </g>
                    <g transform="matrix(1,0,0,0.732743,13.5963,71.2813)">
                        <path d="M39.766,97.763L39.766,102.869" style="fill:none;stroke-width:1.14px;stroke:rgb(47,62,160);"/>
                    </g>
                    <g transform="matrix(1,0,0,0.732743,9.36241,71.2813)">
                        <path d="M39.766,97.763L39.766,102.869" style="fill:none;stroke-width:1.14px;stroke:rgb(47,62,160);"/>
                    </g>
                    <g transform="matrix(1,0,0,0.732743,22.0641,71.2813)">
                        <path d="M39.766,97.763L39.766,102.869" style="fill:none;stroke-width:1.14px;stroke:rgb(47,62,160);"/>
                    </g>
                    <g transform="matrix(1,0,0,0.732743,26.298,71.2813)">
                        <path d="M39.766,97.763L39.766,102.869" style="fill:none;stroke-width:1.14px;stroke:rgb(47,62,160);"/>
                    </g>
                    <g transform="matrix(1,0,0,0.732743,17.8302,71.2813)">
                        <path d="M39.766,97.763L39.766,102.869" style="fill:none;stroke-width:1.14px;stroke:rgb(47,62,160);"/>
                    </g>
                </g>
            </g>
            <g transform="matrix(0.632097,0,0,0.632097,-37.8987,108.655)">
                <g transform="matrix(1.24111,0,0,0.784334,-35.0777,33.2573)">
                    <rect x="161.166" y="163.276" width="49.708" height="19.019" style="fill:rgb(242,242,242);stroke-width:1.52px;stroke:rgb(115,115,115);"/>
                </g>
                <text x="166.516px" y="172.066px" style="font-family:Arial;font-size:10.667px;fill:rgb(102,102,102);">JoinT<tspan x="191.417px 197.35px " y="172.066px 172.066px ">ab</tspan>le(2)</text>
            </g>
            <g transform="matrix(0.632097,0,0,0.632097,-36.5871,63.283)">
                <g transform="matrix(1.15762,0,0,0.784334,-21.6219,33.2573)">
                    <rect x="161.166" y="163.276" width="49.708" height="19.019" style="fill:rgb(242,242,242);stroke-width:1.6px;stroke:rgb(115,115,115);"/>
                </g>
                <g transform="matrix(1,0,0,1,1.58204,0)">
                    <text x="166.516px" y="172.066px" style="font-family:Arial;font-size:10.667px;fill:rgb(102,102,102);">Linear(9,8)</text>
                </g>
            </g>
            <g transform="matrix(0.632097,0,0,0.632097,-30.9027,20.0624)">
                <g transform="matrix(0.795795,0,0,0.784334,36.6925,33.2573)">
                    <rect x="161.166" y="163.276" width="49.708" height="19.019" style="fill:rgb(242,242,242);stroke-width:2px;stroke:rgb(115,115,115);"/>
                </g>
                <g transform="matrix(1,0,0,1,1.58204,0)">
                    <text x="166.516px" y="172.066px" style="font-family:Arial;font-size:10.667px;fill:rgb(102,102,102);">T<tspan x="171.85px 177.782px " y="172.066px 172.066px ">an</tspan>H()</text>
                </g>
            </g>
        </g>
        <g transform="matrix(1,0,0,1,160.017,-31.8712)">
            <g transform="matrix(1,0,0,1,-18.2473,37.0959)">
                <g transform="matrix(0.455601,0.0016645,-0.00120831,0.330733,37.9838,121.197)">
                    <path d="M145.699,196.151L151.557,211.055L139.841,211.055L145.699,196.151Z" style="fill:black;"/>
                </g>
                <g transform="matrix(0.507891,0.00185554,-0.000762159,0.208615,4.82039,159.097)">
                    <path d="M195.734,142.527L195.734,170.351" style="fill:none;stroke-width:5.15px;stroke:black;"/>
                </g>
            </g>
            <g transform="matrix(1,0,0,1,-18.2473,11.6333)">
                <g transform="matrix(0.455601,0.0016645,-0.00120831,0.330733,37.9838,121.197)">
                    <path d="M145.699,196.151L151.557,211.055L139.841,211.055L145.699,196.151Z" style="fill:black;"/>
                </g>
                <g transform="matrix(0.507891,0.00185554,-0.000762159,0.208615,4.82039,159.097)">
                    <path d="M195.734,142.527L195.734,170.351" style="fill:none;stroke-width:5.15px;stroke:black;"/>
                </g>
            </g>
            <g transform="matrix(1,0,0,1,-18.2473,-8.69648)">
                <g transform="matrix(0.455601,0.0016645,-0.00120831,0.330733,37.9838,121.197)">
                    <path d="M145.699,196.151L151.557,211.055L139.841,211.055L145.699,196.151Z" style="fill:black;"/>
                </g>
                <g transform="matrix(0.507891,0.00185554,-0.000762159,0.208615,4.82039,159.097)">
                    <path d="M195.734,142.527L195.734,170.351" style="fill:none;stroke-width:5.15px;stroke:black;"/>
                </g>
            </g>
            <g transform="matrix(1,0,0,1,-18.2473,-52.3944)">
                <g transform="matrix(0.455601,0.0016645,-0.00120831,0.330733,37.9838,121.197)">
                    <path d="M145.699,196.151L151.557,211.055L139.841,211.055L145.699,196.151Z" style="fill:black;"/>
                </g>
                <g transform="matrix(0.507891,0.00185554,-0.000762159,0.208615,4.82039,159.097)">
                    <path d="M195.734,142.527L195.734,170.351" style="fill:none;stroke-width:5.15px;stroke:black;"/>
                </g>
            </g>
            <g transform="matrix(1.28854,0,0,1,-48.2868,-32.7864)">
                <g transform="matrix(0.455601,0.0016645,-0.00120831,0.330733,37.9838,121.197)">
                    <path d="M145.699,196.151L151.557,211.055L139.841,211.055L145.699,196.151Z" style="fill:black;"/>
                </g>
                <g transform="matrix(0.507891,0.00185554,-0.000762159,0.208615,4.82039,159.097)">
                    <path d="M195.734,142.527L195.734,170.351" style="fill:none;stroke-width:4.12px;stroke:black;"/>
                </g>
            </g>
            <g transform="matrix(1,0,0,1,32.6942,3.73221)">
                <g transform="matrix(2.83277e-16,1,-0.744701,2.10957e-16,139.051,-90.8002)">
                    <rect x="233.408" y="92.468" width="4.359" height="45.716" style="fill:rgb(229,212,230);stroke-width:1.13px;stroke:rgb(103,50,141);"/>
                </g>
                <g transform="matrix(1,0,0,0.732743,5.12851,71.2813)">
                    <path d="M39.766,97.763L39.766,102.869" style="fill:none;stroke-width:1.14px;stroke:rgb(103,50,141);"/>
                </g>
                <g transform="matrix(1,0,0,0.732743,0.8946,71.2813)">
                    <path d="M39.766,97.763L39.766,102.869" style="fill:none;stroke-width:1.14px;stroke:rgb(103,50,141);"/>
                </g>
                <g transform="matrix(1,0,0,0.732743,13.5963,71.2813)">
                    <path d="M39.766,97.763L39.766,102.869" style="fill:none;stroke-width:1.14px;stroke:rgb(103,50,141);"/>
                </g>
                <g transform="matrix(1,0,0,0.732743,9.36241,71.2813)">
                    <path d="M39.766,97.763L39.766,102.869" style="fill:none;stroke-width:1.14px;stroke:rgb(103,50,141);"/>
                </g>
                <g transform="matrix(1,0,0,0.732743,22.0641,71.2813)">
                    <path d="M39.766,97.763L39.766,102.869" style="fill:none;stroke-width:1.14px;stroke:rgb(103,50,141);"/>
                </g>
                <g transform="matrix(1,0,0,0.732743,26.298,71.2813)">
                    <path d="M39.766,97.763L39.766,102.869" style="fill:none;stroke-width:1.14px;stroke:rgb(103,50,141);"/>
                </g>
                <g transform="matrix(1,0,0,0.732743,17.8302,71.2813)">
                    <path d="M39.766,97.763L39.766,102.869" style="fill:none;stroke-width:1.14px;stroke:rgb(103,50,141);"/>
                </g>
            </g>
            <g transform="matrix(1,0,0,1,0.795071,0)">
                <g transform="matrix(0.985765,-1.42895e-17,-1.34564e-17,0.983231,64.3092,49.3769)">
                    <rect x="36.173" y="142.444" width="4.409" height="4.421" style="fill:rgb(189,222,177);stroke-width:1.02px;stroke:rgb(26,148,40);"/>
                </g>
                <g transform="matrix(1,0,0,1,29.675,46.8185)">
                    <g transform="matrix(2.83277e-16,1,-0.744701,2.10957e-16,139.051,-90.8002)">
                        <rect x="233.408" y="92.468" width="4.359" height="45.716" style="fill:rgb(162,199,239);stroke-width:1.13px;stroke:rgb(47,62,160);"/>
                    </g>
                    <g transform="matrix(1,0,0,0.732743,5.12851,71.2813)">
                        <path d="M39.766,97.763L39.766,102.869" style="fill:none;stroke-width:1.14px;stroke:rgb(47,62,160);"/>
                    </g>
                    <g transform="matrix(1,0,0,0.732743,0.8946,71.2813)">
                        <path d="M39.766,97.763L39.766,102.869" style="fill:none;stroke-width:1.14px;stroke:rgb(47,62,160);"/>
                    </g>
                    <g transform="matrix(1,0,0,0.732743,13.5963,71.2813)">
                        <path d="M39.766,97.763L39.766,102.869" style="fill:none;stroke-width:1.14px;stroke:rgb(47,62,160);"/>
                    </g>
                    <g transform="matrix(1,0,0,0.732743,9.36241,71.2813)">
                        <path d="M39.766,97.763L39.766,102.869" style="fill:none;stroke-width:1.14px;stroke:rgb(47,62,160);"/>
                    </g>
                    <g transform="matrix(1,0,0,0.732743,22.0641,71.2813)">
                        <path d="M39.766,97.763L39.766,102.869" style="fill:none;stroke-width:1.14px;stroke:rgb(47,62,160);"/>
                    </g>
                    <g transform="matrix(1,0,0,0.732743,26.298,71.2813)">
                        <path d="M39.766,97.763L39.766,102.869" style="fill:none;stroke-width:1.14px;stroke:rgb(47,62,160);"/>
                    </g>
                    <g transform="matrix(1,0,0,0.732743,17.8302,71.2813)">
                        <path d="M39.766,97.763L39.766,102.869" style="fill:none;stroke-width:1.14px;stroke:rgb(47,62,160);"/>
                    </g>
                </g>
            </g>
            <g transform="matrix(0.632097,0,0,0.632097,-37.8987,108.655)">
                <g transform="matrix(1.24111,0,0,0.784334,-35.0777,33.2573)">
                    <rect x="161.166" y="163.276" width="49.708" height="19.019" style="fill:rgb(242,242,242);stroke-width:1.52px;stroke:rgb(115,115,115);"/>
                </g>
                <text x="166.516px" y="172.066px" style="font-family:Arial;font-size:10.667px;fill:rgb(102,102,102);">JoinT<tspan x="191.417px 197.35px " y="172.066px 172.066px ">ab</tspan>le(2)</text>
            </g>
            <g transform="matrix(0.632097,0,0,0.632097,-36.5871,63.283)">
                <g transform="matrix(1.15762,0,0,0.784334,-21.6219,33.2573)">
                    <rect x="161.166" y="163.276" width="49.708" height="19.019" style="fill:rgb(242,242,242);stroke-width:1.6px;stroke:rgb(115,115,115);"/>
                </g>
                <g transform="matrix(1,0,0,1,1.58204,0)">
                    <text x="166.516px" y="172.066px" style="font-family:Arial;font-size:10.667px;fill:rgb(102,102,102);">Linear(9,8)</text>
                </g>
            </g>
            <g transform="matrix(0.632097,0,0,0.632097,-30.9027,20.0624)">
                <g transform="matrix(0.795795,0,0,0.784334,36.6925,33.2573)">
                    <rect x="161.166" y="163.276" width="49.708" height="19.019" style="fill:rgb(242,242,242);stroke-width:2px;stroke:rgb(115,115,115);"/>
                </g>
                <g transform="matrix(1,0,0,1,1.58204,0)">
                    <text x="166.516px" y="172.066px" style="font-family:Arial;font-size:10.667px;fill:rgb(102,102,102);">T<tspan x="171.85px 177.782px " y="172.066px 172.066px ">an</tspan>H()</text>
                </g>
            </g>
        </g>
        <g transform="matrix(1,0,0,1,78.5755,25.0974)">
            <g transform="matrix(0.455601,0.0016645,-0.00120831,0.330733,37.9838,121.197)">
                <path d="M145.699,196.151L151.557,211.055L139.841,211.055L145.699,196.151Z" style="fill:black;"/>
            </g>
            <g transform="matrix(0.507891,0.00185554,-0.000762159,0.208615,4.82039,159.097)">
                <path d="M195.734,142.527L195.734,170.351" style="fill:none;stroke-width:5.15px;stroke:black;"/>
            </g>
        </g>
        <g transform="matrix(1,0,0,1,141.77,26.1213)">
            <g transform="matrix(0.455601,0.0016645,-0.00120831,0.330733,37.9838,121.197)">
                <path d="M145.699,196.151L151.557,211.055L139.841,211.055L145.699,196.151Z" style="fill:black;"/>
            </g>
            <g transform="matrix(0.507891,0.00185554,-0.000762159,0.208615,4.82039,159.097)">
                <path d="M195.734,142.527L195.734,170.351" style="fill:none;stroke-width:5.15px;stroke:black;"/>
            </g>
        </g>
        <g transform="matrix(0.787121,-0.616799,0.616799,0.787121,-64.5093,155.133)">
            <g transform="matrix(0.455601,0.0016645,-0.00120831,0.330733,37.9838,121.197)">
                <path d="M145.699,196.151L151.557,211.055L139.841,211.055L145.699,196.151Z" style="fill:black;"/>
            </g>
            <g transform="matrix(0.507891,0.00185554,-0.00141854,0.388278,4.91394,133.49)">
                <path d="M195.734,142.527L195.734,170.351" style="fill:none;stroke-width:4.42px;stroke:black;"/>
            </g>
        </g>
        <g transform="matrix(-0.787121,-0.616799,-0.616799,0.787121,429.929,154.028)">
            <g transform="matrix(0.455601,0.0016645,-0.00120831,0.330733,37.9838,121.197)">
                <path d="M145.699,196.151L151.557,211.055L139.841,211.055L145.699,196.151Z" style="fill:black;"/>
            </g>
            <g transform="matrix(0.507891,0.00185554,-0.00141854,0.388278,4.91394,133.49)">
                <path d="M195.734,142.527L195.734,170.351" style="fill:none;stroke-width:4.42px;stroke:black;"/>
            </g>
        </g>
        <g transform="matrix(1.48002,0,0,1.57566,-96.5826,160.229)">
            <path d="M105.65,18.625C105.661,18.579 105.686,18.507 105.686,18.447C105.686,18.327 105.566,18.327 105.542,18.327C105.53,18.327 104.947,18.375 104.888,18.388C104.684,18.399 104.505,18.422 104.291,18.435C103.992,18.458 103.909,18.471 103.909,18.685C103.909,18.805 104.005,18.805 104.172,18.805C104.756,18.805 104.767,18.911 104.767,19.032C104.767,19.102 104.743,19.197 104.731,19.233L103.003,26.135C102.956,26.315 102.956,26.338 102.956,26.41C102.956,26.672 103.157,26.719 103.278,26.719C103.48,26.719 103.634,26.565 103.694,26.433L104.231,24.275C104.291,24.013 104.363,23.763 104.422,23.5C104.553,23 104.553,22.988 104.78,22.643C105.006,22.297 105.542,21.582 106.461,21.582C106.938,21.582 107.105,21.94 107.105,22.416C107.105,23.083 106.639,24.383 106.377,25.099C106.268,25.385 106.209,25.54 106.209,25.754C106.209,26.291 106.58,26.719 107.152,26.719C108.261,26.719 108.678,24.968 108.678,24.896C108.678,24.836 108.63,24.788 108.557,24.788C108.452,24.788 108.439,24.824 108.38,25.027C108.105,25.98 107.664,26.482 107.188,26.482C107.068,26.482 106.878,26.469 106.878,26.088C106.878,25.779 107.019,25.396 107.068,25.266C107.282,24.693 107.818,23.286 107.818,22.596C107.818,21.88 107.402,21.344 106.494,21.344C105.817,21.344 105.219,21.666 104.731,22.285L105.65,18.625Z" style="fill:black;fill-rule:nonzero;"/>
            <path d="M112.886,25.866C112.886,25.015 112.798,24.499 112.536,23.99C112.188,23.291 111.543,23.116 111.106,23.116C110.105,23.116 109.739,23.863 109.628,24.085C109.342,24.666 109.327,25.452 109.327,25.866C109.327,26.39 109.35,27.193 109.731,27.829C110.097,28.416 110.684,28.568 111.106,28.568C111.488,28.568 112.169,28.449 112.568,27.661C112.863,27.09 112.886,26.382 112.886,25.866ZM111.106,28.344C110.836,28.344 110.288,28.218 110.119,27.383C110.032,26.93 110.032,26.183 110.032,25.771C110.032,25.222 110.032,24.666 110.119,24.229C110.288,23.418 110.907,23.338 111.106,23.338C111.377,23.338 111.925,23.474 112.082,24.196C112.178,24.633 112.178,25.23 112.178,25.771C112.178,26.24 112.178,26.954 112.082,27.399C111.917,28.233 111.368,28.344 111.106,28.344Z" style="fill:black;fill-rule:nonzero;"/>
        </g>
        <g transform="matrix(1,0,0,1,7.71327,38.3179)">
            <g transform="matrix(2.83277e-16,1,-0.744701,2.10957e-16,139.051,-90.8002)">
                <rect x="233.408" y="92.468" width="4.359" height="45.716" style="fill:rgb(162,199,239);stroke-width:1.13px;stroke:rgb(47,62,160);"/>
            </g>
            <g transform="matrix(1,0,0,0.732743,5.12851,71.2813)">
                <path d="M39.766,97.763L39.766,102.869" style="fill:none;stroke-width:1.14px;stroke:rgb(47,62,160);"/>
            </g>
            <g transform="matrix(1,0,0,0.732743,0.8946,71.2813)">
                <path d="M39.766,97.763L39.766,102.869" style="fill:none;stroke-width:1.14px;stroke:rgb(47,62,160);"/>
            </g>
            <g transform="matrix(1,0,0,0.732743,13.5963,71.2813)">
                <path d="M39.766,97.763L39.766,102.869" style="fill:none;stroke-width:1.14px;stroke:rgb(47,62,160);"/>
            </g>
            <g transform="matrix(1,0,0,0.732743,9.36241,71.2813)">
                <path d="M39.766,97.763L39.766,102.869" style="fill:none;stroke-width:1.14px;stroke:rgb(47,62,160);"/>
            </g>
            <g transform="matrix(1,0,0,0.732743,22.0641,71.2813)">
                <path d="M39.766,97.763L39.766,102.869" style="fill:none;stroke-width:1.14px;stroke:rgb(47,62,160);"/>
            </g>
            <g transform="matrix(1,0,0,0.732743,26.298,71.2813)">
                <path d="M39.766,97.763L39.766,102.869" style="fill:none;stroke-width:1.14px;stroke:rgb(47,62,160);"/>
            </g>
            <g transform="matrix(1,0,0,0.732743,17.8302,71.2813)">
                <path d="M39.766,97.763L39.766,102.869" style="fill:none;stroke-width:1.14px;stroke:rgb(47,62,160);"/>
            </g>
        </g>
        <g transform="matrix(1,0,0,1,63.3088,-71.2021)">
            <g transform="matrix(2.83277e-16,1,-0.744701,2.10957e-16,139.051,-90.8002)">
                <rect x="233.408" y="92.468" width="4.359" height="45.716" style="fill:rgb(162,199,239);stroke-width:1.13px;stroke:rgb(47,62,160);"/>
            </g>
            <g transform="matrix(1,0,0,0.732743,5.12851,71.2813)">
                <path d="M39.766,97.763L39.766,102.869" style="fill:none;stroke-width:1.14px;stroke:rgb(47,62,160);"/>
            </g>
            <g transform="matrix(1,0,0,0.732743,0.8946,71.2813)">
                <path d="M39.766,97.763L39.766,102.869" style="fill:none;stroke-width:1.14px;stroke:rgb(47,62,160);"/>
            </g>
            <g transform="matrix(1,0,0,0.732743,13.5963,71.2813)">
                <path d="M39.766,97.763L39.766,102.869" style="fill:none;stroke-width:1.14px;stroke:rgb(47,62,160);"/>
            </g>
            <g transform="matrix(1,0,0,0.732743,9.36241,71.2813)">
                <path d="M39.766,97.763L39.766,102.869" style="fill:none;stroke-width:1.14px;stroke:rgb(47,62,160);"/>
            </g>
            <g transform="matrix(1,0,0,0.732743,22.0641,71.2813)">
                <path d="M39.766,97.763L39.766,102.869" style="fill:none;stroke-width:1.14px;stroke:rgb(47,62,160);"/>
            </g>
            <g transform="matrix(1,0,0,0.732743,26.298,71.2813)">
                <path d="M39.766,97.763L39.766,102.869" style="fill:none;stroke-width:1.14px;stroke:rgb(47,62,160);"/>
            </g>
            <g transform="matrix(1,0,0,0.732743,17.8302,71.2813)">
                <path d="M39.766,97.763L39.766,102.869" style="fill:none;stroke-width:1.14px;stroke:rgb(47,62,160);"/>
            </g>
        </g>
        <g transform="matrix(1,0,0,1,126.932,-70.7293)">
            <g transform="matrix(2.83277e-16,1,-0.744701,2.10957e-16,139.051,-90.8002)">
                <rect x="233.408" y="92.468" width="4.359" height="45.716" style="fill:rgb(162,199,239);stroke-width:1.13px;stroke:rgb(47,62,160);"/>
            </g>
            <g transform="matrix(1,0,0,0.732743,5.12851,71.2813)">
                <path d="M39.766,97.763L39.766,102.869" style="fill:none;stroke-width:1.14px;stroke:rgb(47,62,160);"/>
            </g>
            <g transform="matrix(1,0,0,0.732743,0.8946,71.2813)">
                <path d="M39.766,97.763L39.766,102.869" style="fill:none;stroke-width:1.14px;stroke:rgb(47,62,160);"/>
            </g>
            <g transform="matrix(1,0,0,0.732743,13.5963,71.2813)">
                <path d="M39.766,97.763L39.766,102.869" style="fill:none;stroke-width:1.14px;stroke:rgb(47,62,160);"/>
            </g>
            <g transform="matrix(1,0,0,0.732743,9.36241,71.2813)">
                <path d="M39.766,97.763L39.766,102.869" style="fill:none;stroke-width:1.14px;stroke:rgb(47,62,160);"/>
            </g>
            <g transform="matrix(1,0,0,0.732743,22.0641,71.2813)">
                <path d="M39.766,97.763L39.766,102.869" style="fill:none;stroke-width:1.14px;stroke:rgb(47,62,160);"/>
            </g>
            <g transform="matrix(1,0,0,0.732743,26.298,71.2813)">
                <path d="M39.766,97.763L39.766,102.869" style="fill:none;stroke-width:1.14px;stroke:rgb(47,62,160);"/>
            </g>
            <g transform="matrix(1,0,0,0.732743,17.8302,71.2813)">
                <path d="M39.766,97.763L39.766,102.869" style="fill:none;stroke-width:1.14px;stroke:rgb(47,62,160);"/>
            </g>
        </g>
        <g transform="matrix(1,0,0,1,191.343,-70.994)">
            <g transform="matrix(2.83277e-16,1,-0.744701,2.10957e-16,139.051,-90.8002)">
                <rect x="233.408" y="92.468" width="4.359" height="45.716" style="fill:rgb(162,199,239);stroke-width:1.13px;stroke:rgb(47,62,160);"/>
            </g>
            <g transform="matrix(1,0,0,0.732743,5.12851,71.2813)">
                <path d="M39.766,97.763L39.766,102.869" style="fill:none;stroke-width:1.14px;stroke:rgb(47,62,160);"/>
            </g>
            <g transform="matrix(1,0,0,0.732743,0.8946,71.2813)">
                <path d="M39.766,97.763L39.766,102.869" style="fill:none;stroke-width:1.14px;stroke:rgb(47,62,160);"/>
            </g>
            <g transform="matrix(1,0,0,0.732743,13.5963,71.2813)">
                <path d="M39.766,97.763L39.766,102.869" style="fill:none;stroke-width:1.14px;stroke:rgb(47,62,160);"/>
            </g>
            <g transform="matrix(1,0,0,0.732743,9.36241,71.2813)">
                <path d="M39.766,97.763L39.766,102.869" style="fill:none;stroke-width:1.14px;stroke:rgb(47,62,160);"/>
            </g>
            <g transform="matrix(1,0,0,0.732743,22.0641,71.2813)">
                <path d="M39.766,97.763L39.766,102.869" style="fill:none;stroke-width:1.14px;stroke:rgb(47,62,160);"/>
            </g>
            <g transform="matrix(1,0,0,0.732743,26.298,71.2813)">
                <path d="M39.766,97.763L39.766,102.869" style="fill:none;stroke-width:1.14px;stroke:rgb(47,62,160);"/>
            </g>
            <g transform="matrix(1,0,0,0.732743,17.8302,71.2813)">
                <path d="M39.766,97.763L39.766,102.869" style="fill:none;stroke-width:1.14px;stroke:rgb(47,62,160);"/>
            </g>
        </g>
        <g transform="matrix(1,0,0,1,140.819,171.825)">
            <g transform="matrix(2.83277e-16,1,-0.285944,8.10015e-17,75.6584,-90.8002)">
                <rect x="233.408" y="92.468" width="4.359" height="45.716" style="fill:rgb(189,222,177);stroke-width:1.36px;stroke:rgb(26,148,40);"/>
            </g>
            <g transform="matrix(1,0,0,0.732743,5.12851,71.2813)">
                <path d="M39.766,97.763L39.766,102.869" style="fill:none;stroke-width:1.14px;stroke:rgb(26,148,40);"/>
            </g>
            <g transform="matrix(1,0,0,0.732743,0.8946,71.2813)">
                <path d="M39.766,97.763L39.766,102.869" style="fill:none;stroke-width:1.14px;stroke:rgb(26,148,40);"/>
            </g>
        </g>
        <g transform="matrix(1,0,0,1,55.2665,-26.1393)">
            <g transform="matrix(1.02862,-1.49108e-17,-1.40414e-17,1.02598,102.987,138.9)">
                <rect x="36.173" y="142.444" width="4.409" height="4.421" style="fill:rgb(189,222,177);stroke-width:0.97px;stroke:rgb(26,148,40);"/>
            </g>
            <g transform="matrix(1.02862,-1.49108e-17,-1.40414e-17,1.02598,88.8201,138.9)">
                <rect x="36.173" y="142.444" width="4.409" height="4.421" style="fill:rgb(189,222,177);stroke-width:0.97px;stroke:rgb(26,148,40);"/>
            </g>
            <g transform="matrix(1.02862,-1.49108e-17,-1.40414e-17,1.02598,74.2227,138.9)">
                <rect x="36.173" y="142.444" width="4.409" height="4.421" style="fill:rgb(189,222,177);stroke-width:0.97px;stroke:rgb(26,148,40);"/>
            </g>
            <g transform="matrix(1.77858,0,0,1.77858,-231.894,-176.223)">
                <path d="M188.346,260.11C188.613,260.103 188.831,260.031 189,259.894C189.168,259.757 189.28,259.569 189.336,259.329C189.391,259.089 189.421,258.68 189.424,258.1C189.428,257.52 189.438,257.138 189.455,256.954C189.487,256.662 189.545,256.428 189.63,256.251C189.715,256.074 189.82,255.932 189.945,255.826C190.07,255.72 190.23,255.64 190.424,255.584C190.556,255.549 190.771,255.532 191.07,255.532L191.362,255.532L191.362,256.35L191.2,256.35C190.839,256.35 190.599,256.415 190.481,256.545C190.363,256.675 190.304,256.966 190.304,257.418C190.304,258.327 190.285,258.902 190.247,259.141C190.185,259.513 190.078,259.799 189.927,260.001C189.776,260.202 189.539,260.381 189.216,260.537C189.598,260.697 189.875,260.941 190.047,261.269C190.218,261.597 190.304,262.135 190.304,262.881C190.304,263.558 190.311,263.961 190.325,264.089C190.353,264.326 190.423,264.49 190.536,264.584C190.649,264.678 190.87,264.725 191.2,264.725L191.362,264.725L191.362,265.543L191.07,265.543C190.73,265.543 190.483,265.515 190.33,265.459C190.108,265.379 189.924,265.25 189.778,265.071C189.632,264.892 189.538,264.666 189.494,264.391C189.451,264.117 189.428,263.668 189.424,263.043C189.421,262.418 189.391,261.985 189.336,261.746C189.28,261.506 189.168,261.317 189,261.178C188.831,261.039 188.613,260.966 188.346,260.959L188.346,260.11Z" style="fill:black;fill-rule:nonzero;"/>
            </g>
            <g transform="matrix(1.79971,0,0,1.79971,-231.273,-182.673)">
                <path d="M213.726,260.635L213.726,261.484C213.459,261.49 213.241,261.563 213.073,261.702C212.904,261.841 212.792,262.03 212.737,262.267C212.681,262.505 212.652,262.914 212.648,263.494C212.645,264.074 212.634,264.456 212.617,264.64C212.586,264.935 212.528,265.17 212.443,265.345C212.357,265.521 212.252,265.661 212.127,265.767C212.002,265.873 211.843,265.954 211.648,266.01C211.516,266.048 211.301,266.067 211.002,266.067L210.711,266.067L210.711,265.249L210.872,265.249C211.233,265.249 211.473,265.184 211.591,265.054C211.709,264.924 211.768,264.631 211.768,264.176C211.768,263.308 211.784,262.758 211.815,262.525C211.871,262.14 211.982,261.832 212.148,261.601C212.315,261.37 212.551,261.19 212.857,261.062C212.457,260.871 212.176,260.618 212.013,260.304C211.85,259.99 211.768,259.459 211.768,258.713C211.768,258.036 211.759,257.631 211.742,257.499C211.718,257.267 211.649,257.104 211.536,257.012C211.423,256.92 211.202,256.874 210.872,256.874L210.711,256.874L210.711,256.056L211.002,256.056C211.343,256.056 211.589,256.084 211.742,256.14C211.964,256.216 212.148,256.345 212.294,256.525C212.44,256.706 212.535,256.933 212.578,257.207C212.621,257.482 212.645,257.931 212.648,258.556C212.652,259.181 212.681,259.613 212.737,259.851C212.792,260.089 212.904,260.277 213.073,260.416C213.241,260.555 213.459,260.628 213.726,260.635Z" style="fill:black;fill-rule:nonzero;"/>
            </g>
            <g transform="matrix(1,0,0,1,-29.9859,42.582)">
                <text x="147.909px" y="248.532px" style="font-family:Arial;font-size:10.667px;fill:black;">,</text>
            </g>
            <g transform="matrix(1,0,0,1,-15.6039,42.582)">
                <text x="147.909px" y="248.532px" style="font-family:Arial;font-size:10.667px;fill:black;">,</text>
            </g>
        </g>
        <g transform="matrix(2.41372,0,0,2.41372,-36.3766,270.781)">
            <path d="M93.521,21.724C93.139,21.796 92.995,22.083 92.995,22.31C92.995,22.597 93.222,22.692 93.39,22.692C93.749,22.692 94,22.382 94,22.059C94,21.557 93.426,21.329 92.924,21.329C92.194,21.329 91.788,22.047 91.68,22.274C91.405,21.377 90.664,21.329 90.449,21.329C89.229,21.329 88.584,22.896 88.584,23.159C88.584,23.206 88.632,23.266 88.715,23.266C88.811,23.266 88.835,23.194 88.859,23.147C89.265,21.82 90.066,21.569 90.413,21.569C90.951,21.569 91.059,22.071 91.059,22.358C91.059,22.621 90.987,22.896 90.843,23.469L90.437,25.107C90.258,25.825 89.911,26.482 89.277,26.482C89.217,26.482 88.919,26.482 88.668,26.327C89.098,26.243 89.194,25.884 89.194,25.741C89.194,25.502 89.014,25.358 88.787,25.358C88.5,25.358 88.189,25.609 88.189,25.992C88.189,26.494 88.751,26.721 89.265,26.721C89.839,26.721 90.246,26.267 90.497,25.777C90.688,26.482 91.286,26.721 91.728,26.721C92.948,26.721 93.593,25.155 93.593,24.892C93.593,24.832 93.545,24.785 93.474,24.785C93.366,24.785 93.354,24.844 93.318,24.94C92.995,25.992 92.302,26.482 91.764,26.482C91.346,26.482 91.118,26.171 91.118,25.681C91.118,25.418 91.166,25.227 91.357,24.438L91.776,22.812C91.955,22.095 92.362,21.569 92.912,21.569C92.936,21.569 93.27,21.569 93.521,21.724Z" style="fill:black;fill-rule:nonzero;"/>
        </g>
        <g transform="matrix(0.843026,0,0,0.843026,17.9617,145.73)">
            <g transform="matrix(1.26398,0,0,0.784334,-38.7627,33.2573)">
                <rect x="161.166" y="163.276" width="49.708" height="19.019" style="fill:rgb(242,242,242);stroke-width:1.13px;stroke:rgb(115,115,115);"/>
            </g>
            <text x="166.516px" y="172.066px" style="font-family:Arial;font-size:10.667px;fill:rgb(102,102,102);">SplitT<tspan x="192.6px 198.532px " y="172.066px 172.066px ">ab</tspan>le(2)</text>
        </g>
        <g transform="matrix(0.632097,0,0,0.632097,-9.13228,121.999)">
            <g transform="matrix(1.45022,0,0,0.784334,-68.7782,33.2573)">
                <rect x="161.166" y="163.276" width="49.708" height="19.019" style="fill:rgb(242,242,242);stroke-width:1.36px;stroke:rgb(115,115,115);"/>
            </g>
            <text x="166.516px" y="172.066px" style="font-family:Arial;font-size:10.667px;fill:rgb(102,102,102);">SelectT<tspan x="201.496px 207.428px " y="172.066px 172.066px ">ab</tspan>le(1)</text>
        </g>
        <g transform="matrix(0.632097,0,0,0.632097,55.639,121.999)">
            <g transform="matrix(1.45022,0,0,0.784334,-68.7782,33.2573)">
                <rect x="161.166" y="163.276" width="49.708" height="19.019" style="fill:rgb(242,242,242);stroke-width:1.36px;stroke:rgb(115,115,115);"/>
            </g>
            <text x="166.516px" y="172.066px" style="font-family:Arial;font-size:10.667px;fill:rgb(102,102,102);">SelectT<tspan x="201.496px 207.428px " y="172.066px 172.066px ">ab</tspan>le(2)</text>
        </g>
        <g transform="matrix(0.632097,0,0,0.632097,118.833,121.999)">
            <g transform="matrix(1.45022,0,0,0.784334,-68.7782,33.2573)">
                <rect x="161.166" y="163.276" width="49.708" height="19.019" style="fill:rgb(242,242,242);stroke-width:1.36px;stroke:rgb(115,115,115);"/>
            </g>
            <text x="166.516px" y="172.066px" style="font-family:Arial;font-size:10.667px;fill:rgb(102,102,102);">SelectT<tspan x="201.496px 207.428px " y="172.066px 172.066px ">ab</tspan>le(3)</text>
        </g>
        <g transform="matrix(1.02862,-1.49108e-17,-1.40414e-17,1.02598,78.4376,58.6243)">
            <rect x="36.173" y="142.444" width="4.409" height="4.421" style="fill:rgb(189,222,177);stroke-width:0.97px;stroke:rgb(26,148,40);"/>
        </g>
        <g transform="matrix(1.02862,-1.49108e-17,-1.40414e-17,1.02598,143.209,58.3029)">
            <rect x="36.173" y="142.444" width="4.409" height="4.421" style="fill:rgb(189,222,177);stroke-width:0.97px;stroke:rgb(26,148,40);"/>
        </g>
        <g transform="matrix(1.02862,-1.49108e-17,-1.40414e-17,1.02598,206.403,59.3269)">
            <rect x="36.173" y="142.444" width="4.409" height="4.421" style="fill:rgb(189,222,177);stroke-width:0.97px;stroke:rgb(26,148,40);"/>
        </g>
        <g transform="matrix(-0.0012352,0.338093,-0.245431,-0.000896662,210.133,135.059)">
            <g>
                <path d="M145.699,196.151L151.557,211.055L139.841,211.055L145.699,196.151Z" style="fill:black;"/>
            </g>
        </g>
        <g transform="matrix(2.75985,0,0,1.01976,-81.1234,-34.6215)">
            <path d="M102.446,105.719L105.847,105.719L105.847,214.519L110.345,214.519" style="fill:none;stroke-width:0.58px;stroke:black;"/>
        </g>
        <g transform="matrix(2.75985,0,0,1.01976,-145.115,-34.4777)">
            <path d="M102.446,105.719L105.847,105.719L105.847,214.519L110.345,214.519" style="fill:none;stroke-width:0.58px;stroke:black;"/>
        </g>
        <g transform="matrix(1,0,0,1.01976,113.068,-34.6215)">
            <path d="M105.847,214.519L110.345,214.519" style="fill:none;stroke-width:1.19px;stroke:black;"/>
        </g>
        <g transform="matrix(-0.0012352,0.338093,-0.245431,-0.000896662,273.069,134.989)">
            <g>
                <path d="M145.699,196.151L151.557,211.055L139.841,211.055L145.699,196.151Z" style="fill:black;"/>
            </g>
        </g>
        <g transform="matrix(0.632097,0,0,0.632097,176.727,-33.5206)">
            <g transform="matrix(1.15762,0,0,0.784334,-21.6219,33.2573)">
                <rect x="161.166" y="163.276" width="49.708" height="19.019" style="fill:rgb(242,242,242);stroke-width:1.6px;stroke:rgb(115,115,115);"/>
            </g>
            <g transform="matrix(1,0,0,1,1.58204,0)">
                <text x="166.516px" y="172.066px" style="font-family:Arial;font-size:10.667px;fill:rgb(102,102,102);">Linear(8,1)</text>
            </g>
        </g>
        <g transform="matrix(1.02862,-1.49108e-17,-1.40414e-17,1.02598,296.55,-75.0296)">
            <rect x="36.173" y="142.444" width="4.409" height="4.421" style="fill:rgb(229,184,184);stroke-width:0.97px;stroke:rgb(148,23,23);"/>
        </g>
        <g transform="matrix(1.85073,0,0,1.85073,104.437,40.8431)">
            <path d="M125.152,27.941C124.829,28.395 124.363,28.801 123.777,28.801C123.634,28.801 123.06,28.778 122.88,28.228C122.916,28.24 122.976,28.24 123,28.24C123.359,28.24 123.598,27.929 123.598,27.654C123.598,27.379 123.371,27.283 123.191,27.283C123,27.283 122.582,27.427 122.582,28.012C122.582,28.622 123.096,29.041 123.777,29.041C124.973,29.041 126.18,27.941 126.515,26.614L127.686,21.951C127.698,21.891 127.722,21.82 127.722,21.748C127.722,21.569 127.579,21.449 127.4,21.449C127.292,21.449 127.041,21.497 126.945,21.855L126.061,25.37C126.001,25.586 126.001,25.609 125.905,25.741C125.666,26.076 125.272,26.482 124.698,26.482C124.028,26.482 123.968,25.825 123.968,25.502C123.968,24.82 124.291,23.9 124.614,23.039C124.745,22.692 124.817,22.525 124.817,22.286C124.817,21.784 124.459,21.329 123.873,21.329C122.773,21.329 122.331,23.063 122.331,23.159C122.331,23.206 122.378,23.266 122.462,23.266C122.57,23.266 122.582,23.218 122.629,23.051C122.916,22.047 123.371,21.569 123.837,21.569C123.944,21.569 124.148,21.569 124.148,21.963C124.148,22.274 124.016,22.621 123.837,23.075C123.251,24.641 123.251,25.036 123.251,25.322C123.251,26.458 124.064,26.721 124.662,26.721C125.008,26.721 125.439,26.614 125.857,26.171L125.869,26.183C125.69,26.889 125.57,27.355 125.152,27.941Z" style="fill:black;fill-rule:nonzero;"/>
        </g>
        <g transform="matrix(0.575912,0,0,0.575912,72.615,190.349)">
            <g transform="matrix(2.41372,0,0,2.41372,-124.675,-30.1533)">
                <path d="M93.521,21.724C93.139,21.796 92.995,22.083 92.995,22.31C92.995,22.597 93.222,22.692 93.39,22.692C93.749,22.692 94,22.382 94,22.059C94,21.557 93.426,21.329 92.924,21.329C92.194,21.329 91.788,22.047 91.68,22.274C91.405,21.377 90.664,21.329 90.449,21.329C89.229,21.329 88.584,22.896 88.584,23.159C88.584,23.206 88.632,23.266 88.715,23.266C88.811,23.266 88.835,23.194 88.859,23.147C89.265,21.82 90.066,21.569 90.413,21.569C90.951,21.569 91.059,22.071 91.059,22.358C91.059,22.621 90.987,22.896 90.843,23.469L90.437,25.107C90.258,25.825 89.911,26.482 89.277,26.482C89.217,26.482 88.919,26.482 88.668,26.327C89.098,26.243 89.194,25.884 89.194,25.741C89.194,25.502 89.014,25.358 88.787,25.358C88.5,25.358 88.189,25.609 88.189,25.992C88.189,26.494 88.751,26.721 89.265,26.721C89.839,26.721 90.246,26.267 90.497,25.777C90.688,26.482 91.286,26.721 91.728,26.721C92.948,26.721 93.593,25.155 93.593,24.892C93.593,24.832 93.545,24.785 93.474,24.785C93.366,24.785 93.354,24.844 93.318,24.94C92.995,25.992 92.302,26.482 91.764,26.482C91.346,26.482 91.118,26.171 91.118,25.681C91.118,25.418 91.166,25.227 91.357,24.438L91.776,22.812C91.955,22.095 92.362,21.569 92.912,21.569C92.936,21.569 93.27,21.569 93.521,21.724Z" style="fill:black;fill-rule:nonzero;"/>
            </g>
            <g transform="matrix(2.41372,0,0,2.41372,-124.675,-30.1533)">
                <path d="M97.009,23.318C97.009,23.103 96.993,23.095 96.778,23.095C96.451,23.414 96.029,23.605 95.272,23.605L95.272,23.868C95.487,23.868 95.917,23.868 96.38,23.653L96.38,27.742C96.38,28.037 96.356,28.132 95.598,28.132L95.32,28.132L95.32,28.395C95.646,28.372 96.332,28.372 96.69,28.372C97.049,28.372 97.742,28.372 98.069,28.395L98.069,28.132L97.79,28.132C97.033,28.132 97.009,28.037 97.009,27.742L97.009,23.318Z" style="fill:black;fill-rule:nonzero;"/>
            </g>
        </g>
        <g transform="matrix(0.575912,0,0,0.575912,121.403,190.349)">
            <g transform="matrix(2.41372,0,0,2.41372,-124.675,-30.1533)">
                <path d="M104.905,21.724C104.523,21.796 104.379,22.083 104.379,22.31C104.379,22.597 104.606,22.692 104.774,22.692C105.133,22.692 105.384,22.382 105.384,22.059C105.384,21.557 104.81,21.329 104.308,21.329C103.578,21.329 103.172,22.047 103.064,22.274C102.789,21.377 102.048,21.329 101.833,21.329C100.613,21.329 99.968,22.896 99.968,23.159C99.968,23.206 100.016,23.266 100.099,23.266C100.195,23.266 100.219,23.194 100.243,23.147C100.649,21.82 101.45,21.569 101.797,21.569C102.335,21.569 102.443,22.071 102.443,22.358C102.443,22.621 102.371,22.896 102.227,23.469L101.821,25.107C101.642,25.825 101.295,26.482 100.661,26.482C100.601,26.482 100.303,26.482 100.052,26.327C100.482,26.243 100.578,25.884 100.578,25.741C100.578,25.502 100.398,25.358 100.171,25.358C99.884,25.358 99.573,25.609 99.573,25.992C99.573,26.494 100.135,26.721 100.649,26.721C101.223,26.721 101.63,26.267 101.881,25.777C102.072,26.482 102.67,26.721 103.112,26.721C104.332,26.721 104.977,25.155 104.977,24.892C104.977,24.832 104.929,24.785 104.858,24.785C104.75,24.785 104.738,24.844 104.702,24.94C104.379,25.992 103.686,26.482 103.148,26.482C102.73,26.482 102.502,26.171 102.502,25.681C102.502,25.418 102.55,25.227 102.741,24.438L103.16,22.812C103.339,22.095 103.746,21.569 104.296,21.569C104.32,21.569 104.654,21.569 104.905,21.724Z" style="fill:black;fill-rule:nonzero;"/>
            </g>
            <g transform="matrix(2.41372,0,0,2.41372,-124.675,-30.1533)">
                <path d="M108.139,26.77C108.267,26.65 108.602,26.387 108.729,26.275C109.223,25.821 109.693,25.383 109.693,24.657C109.693,23.709 108.896,23.095 107.9,23.095C106.944,23.095 106.314,23.821 106.314,24.53C106.314,24.92 106.625,24.976 106.737,24.976C106.904,24.976 107.151,24.857 107.151,24.554C107.151,24.139 106.752,24.139 106.657,24.139C106.888,23.558 107.422,23.358 107.813,23.358C108.554,23.358 108.936,23.988 108.936,24.657C108.936,25.486 108.354,26.092 107.414,27.056L106.41,28.093C106.314,28.18 106.314,28.196 106.314,28.395L109.462,28.395L109.693,26.969L109.446,26.969C109.422,27.128 109.359,27.527 109.263,27.678C109.215,27.742 108.61,27.742 108.482,27.742L107.063,27.742L108.139,26.77Z" style="fill:black;fill-rule:nonzero;"/>
            </g>
        </g>
        <g transform="matrix(0.575912,0,0,0.575912,169.87,190.116)">
            <g transform="matrix(2.41372,0,0,2.41372,-124.675,-30.1533)">
                <path d="M116.29,21.724C115.908,21.796 115.764,22.083 115.764,22.31C115.764,22.597 115.991,22.692 116.159,22.692C116.517,22.692 116.768,22.382 116.768,22.059C116.768,21.557 116.194,21.329 115.692,21.329C114.963,21.329 114.557,22.047 114.449,22.274C114.174,21.377 113.433,21.329 113.218,21.329C111.998,21.329 111.353,22.896 111.353,23.159C111.353,23.206 111.4,23.266 111.484,23.266C111.58,23.266 111.604,23.194 111.628,23.147C112.034,21.82 112.835,21.569 113.182,21.569C113.72,21.569 113.827,22.071 113.827,22.358C113.827,22.621 113.756,22.896 113.612,23.469L113.206,25.107C113.026,25.825 112.68,26.482 112.046,26.482C111.986,26.482 111.687,26.482 111.436,26.327C111.867,26.243 111.962,25.884 111.962,25.741C111.962,25.502 111.783,25.358 111.556,25.358C111.269,25.358 110.958,25.609 110.958,25.992C110.958,26.494 111.52,26.721 112.034,26.721C112.608,26.721 113.014,26.267 113.265,25.777C113.457,26.482 114.055,26.721 114.497,26.721C115.716,26.721 116.362,25.155 116.362,24.892C116.362,24.832 116.314,24.785 116.242,24.785C116.135,24.785 116.123,24.844 116.087,24.94C115.764,25.992 115.071,26.482 114.533,26.482C114.114,26.482 113.887,26.171 113.887,25.681C113.887,25.418 113.935,25.227 114.126,24.438L114.545,22.812C114.724,22.095 115.13,21.569 115.68,21.569C115.704,21.569 116.039,21.569 116.29,21.724Z" style="fill:black;fill-rule:nonzero;"/>
            </g>
            <g transform="matrix(2.41372,0,0,2.41372,-124.675,-30.1533)">
                <g>
                    <path d="M119.292,25.733C119.922,25.733 120.32,26.196 120.32,27.033C120.32,28.029 119.754,28.324 119.332,28.324C118.894,28.324 118.296,28.164 118.017,27.742C118.304,27.742 118.503,27.559 118.503,27.296C118.503,27.041 118.32,26.857 118.065,26.857C117.85,26.857 117.626,26.993 117.626,27.312C117.626,28.069 118.439,28.563 119.348,28.563C120.408,28.563 121.149,27.83 121.149,27.033C121.149,26.371 120.623,25.765 119.81,25.59C120.44,25.367 120.91,24.825 120.91,24.187C120.91,23.55 120.193,23.095 119.364,23.095C118.511,23.095 117.865,23.558 117.865,24.163C117.865,24.458 118.065,24.586 118.272,24.586C118.519,24.586 118.678,24.41 118.678,24.179C118.678,23.884 118.423,23.773 118.248,23.765C118.583,23.326 119.197,23.303 119.34,23.303C119.547,23.303 120.153,23.366 120.153,24.187C120.153,24.745 119.922,25.08 119.81,25.207C119.571,25.454 119.388,25.47 118.902,25.502C118.75,25.51 118.686,25.518 118.686,25.622C118.686,25.733 118.758,25.733 118.894,25.733L119.292,25.733Z" style="fill:black;fill-rule:nonzero;"/>
                </g>
            </g>
        </g>
        <g transform="matrix(0.501706,0,0,0.501706,48.1033,4.66394)">
            <g transform="matrix(2.29029,0,0,2.29029,-55.9044,58.456)">
                <path d="M105.65,18.625C105.661,18.579 105.686,18.507 105.686,18.447C105.686,18.327 105.566,18.327 105.542,18.327C105.53,18.327 104.947,18.375 104.888,18.388C104.684,18.399 104.505,18.422 104.291,18.435C103.992,18.458 103.909,18.471 103.909,18.685C103.909,18.805 104.005,18.805 104.172,18.805C104.756,18.805 104.767,18.911 104.767,19.032C104.767,19.102 104.743,19.197 104.731,19.233L103.003,26.135C102.956,26.315 102.956,26.338 102.956,26.41C102.956,26.672 103.157,26.719 103.278,26.719C103.48,26.719 103.634,26.565 103.694,26.433L104.231,24.275C104.291,24.013 104.363,23.763 104.422,23.5C104.553,23 104.553,22.988 104.78,22.643C105.006,22.297 105.542,21.582 106.461,21.582C106.938,21.582 107.105,21.94 107.105,22.416C107.105,23.083 106.639,24.383 106.377,25.099C106.268,25.385 106.209,25.54 106.209,25.754C106.209,26.291 106.58,26.719 107.152,26.719C108.261,26.719 108.678,24.968 108.678,24.896C108.678,24.836 108.63,24.788 108.557,24.788C108.452,24.788 108.439,24.824 108.38,25.027C108.105,25.98 107.664,26.482 107.188,26.482C107.068,26.482 106.878,26.469 106.878,26.088C106.878,25.779 107.019,25.396 107.068,25.266C107.282,24.693 107.818,23.286 107.818,22.596C107.818,21.88 107.402,21.344 106.494,21.344C105.817,21.344 105.219,21.666 104.731,22.285L105.65,18.625Z" style="fill:black;fill-rule:nonzero;"/>
            </g>
            <g transform="matrix(2.41372,0,0,2.41372,-34.6386,55.2743)">
                <path d="M97.009,23.318C97.009,23.103 96.993,23.095 96.778,23.095C96.451,23.414 96.029,23.605 95.272,23.605L95.272,23.868C95.487,23.868 95.917,23.868 96.38,23.653L96.38,27.742C96.38,28.037 96.356,28.132 95.598,28.132L95.32,28.132L95.32,28.395C95.646,28.372 96.332,28.372 96.69,28.372C97.049,28.372 97.742,28.372 98.069,28.395L98.069,28.132L97.79,28.132C97.033,28.132 97.009,28.037 97.009,27.742L97.009,23.318Z" style="fill:black;fill-rule:nonzero;"/>
            </g>
        </g>
        <g transform="matrix(0.91037,0,0,0.91037,-22.2237,-172.705)">
            <g transform="matrix(1.33021,0,0,1.33021,169.048,227.039)">
                <g>
                    <path d="M119.292,25.733C119.922,25.733 120.32,26.196 120.32,27.033C120.32,28.029 119.754,28.324 119.332,28.324C118.894,28.324 118.296,28.164 118.017,27.742C118.304,27.742 118.503,27.559 118.503,27.296C118.503,27.041 118.32,26.857 118.065,26.857C117.85,26.857 117.626,26.993 117.626,27.312C117.626,28.069 118.439,28.563 119.348,28.563C120.408,28.563 121.149,27.83 121.149,27.033C121.149,26.371 120.623,25.765 119.81,25.59C120.44,25.367 120.91,24.825 120.91,24.187C120.91,23.55 120.193,23.095 119.364,23.095C118.511,23.095 117.865,23.558 117.865,24.163C117.865,24.458 118.065,24.586 118.272,24.586C118.519,24.586 118.678,24.41 118.678,24.179C118.678,23.884 118.423,23.773 118.248,23.765C118.583,23.326 119.197,23.303 119.34,23.303C119.547,23.303 120.153,23.366 120.153,24.187C120.153,24.745 119.922,25.08 119.81,25.207C119.571,25.454 119.388,25.47 118.902,25.502C118.75,25.51 118.686,25.518 118.686,25.622C118.686,25.733 118.758,25.733 118.894,25.733L119.292,25.733Z" style="fill:black;fill-rule:nonzero;"/>
                </g>
            </g>
            <g transform="matrix(1.26218,0,0,1.26218,187.205,227.047)">
                <path d="M105.65,18.625C105.661,18.579 105.686,18.507 105.686,18.447C105.686,18.327 105.566,18.327 105.542,18.327C105.53,18.327 104.947,18.375 104.888,18.388C104.684,18.399 104.505,18.422 104.291,18.435C103.992,18.458 103.909,18.471 103.909,18.685C103.909,18.805 104.005,18.805 104.172,18.805C104.756,18.805 104.767,18.911 104.767,19.032C104.767,19.102 104.743,19.197 104.731,19.233L103.003,26.135C102.956,26.315 102.956,26.338 102.956,26.41C102.956,26.672 103.157,26.719 103.278,26.719C103.48,26.719 103.634,26.565 103.694,26.433L104.231,24.275C104.291,24.013 104.363,23.763 104.422,23.5C104.553,23 104.553,22.988 104.78,22.643C105.006,22.297 105.542,21.582 106.461,21.582C106.938,21.582 107.105,21.94 107.105,22.416C107.105,23.083 106.639,24.383 106.377,25.099C106.268,25.385 106.209,25.54 106.209,25.754C106.209,26.291 106.58,26.719 107.152,26.719C108.261,26.719 108.678,24.968 108.678,24.896C108.678,24.836 108.63,24.788 108.557,24.788C108.452,24.788 108.439,24.824 108.38,25.027C108.105,25.98 107.664,26.482 107.188,26.482C107.068,26.482 106.878,26.469 106.878,26.088C106.878,25.779 107.019,25.396 107.068,25.266C107.282,24.693 107.818,23.286 107.818,22.596C107.818,21.88 107.402,21.344 106.494,21.344C105.817,21.344 105.219,21.666 104.731,22.285L105.65,18.625Z" style="fill:black;fill-rule:nonzero;"/>
            </g>
        </g>
        <g transform="matrix(0.91037,0,0,0.91037,-61.3866,-174.254)">
            <g transform="matrix(1.26218,0,0,1.26218,158.798,228.749)">
                <path d="M105.65,18.625C105.661,18.579 105.686,18.507 105.686,18.447C105.686,18.327 105.566,18.327 105.542,18.327C105.53,18.327 104.947,18.375 104.888,18.388C104.684,18.399 104.505,18.422 104.291,18.435C103.992,18.458 103.909,18.471 103.909,18.685C103.909,18.805 104.005,18.805 104.172,18.805C104.756,18.805 104.767,18.911 104.767,19.032C104.767,19.102 104.743,19.197 104.731,19.233L103.003,26.135C102.956,26.315 102.956,26.338 102.956,26.41C102.956,26.672 103.157,26.719 103.278,26.719C103.48,26.719 103.634,26.565 103.694,26.433L104.231,24.275C104.291,24.013 104.363,23.763 104.422,23.5C104.553,23 104.553,22.988 104.78,22.643C105.006,22.297 105.542,21.582 106.461,21.582C106.938,21.582 107.105,21.94 107.105,22.416C107.105,23.083 106.639,24.383 106.377,25.099C106.268,25.385 106.209,25.54 106.209,25.754C106.209,26.291 106.58,26.719 107.152,26.719C108.261,26.719 108.678,24.968 108.678,24.896C108.678,24.836 108.63,24.788 108.557,24.788C108.452,24.788 108.439,24.824 108.38,25.027C108.105,25.98 107.664,26.482 107.188,26.482C107.068,26.482 106.878,26.469 106.878,26.088C106.878,25.779 107.019,25.396 107.068,25.266C107.282,24.693 107.818,23.286 107.818,22.596C107.818,21.88 107.402,21.344 106.494,21.344C105.817,21.344 105.219,21.666 104.731,22.285L105.65,18.625Z" style="fill:black;fill-rule:nonzero;"/>
            </g>
            <g transform="matrix(1.33021,0,0,1.33021,155.882,227.377)">
                <path d="M108.139,26.77C108.267,26.65 108.602,26.387 108.729,26.275C109.223,25.821 109.693,25.383 109.693,24.657C109.693,23.709 108.896,23.095 107.9,23.095C106.944,23.095 106.314,23.821 106.314,24.53C106.314,24.92 106.625,24.976 106.737,24.976C106.904,24.976 107.151,24.857 107.151,24.554C107.151,24.139 106.752,24.139 106.657,24.139C106.888,23.558 107.422,23.358 107.813,23.358C108.554,23.358 108.936,23.988 108.936,24.657C108.936,25.486 108.354,26.092 107.414,27.056L106.41,28.093C106.314,28.18 106.314,28.196 106.314,28.395L109.462,28.395L109.693,26.969L109.446,26.969C109.422,27.128 109.359,27.527 109.263,27.678C109.215,27.742 108.61,27.742 108.482,27.742L107.063,27.742L108.139,26.77Z" style="fill:black;fill-rule:nonzero;"/>
            </g>
        </g>
    </g>
</svg>
