<?xml version="1.0" standalone="no"?>
<!DOCTYPE svg PUBLIC "-//W3C//DTD SVG 1.1//EN" "http://www.w3.org/Graphics/SVG/1.1/DTD/svg11.dtd">
<svg width="100%" height="100%" viewBox="0 0 303 114" version="1.1" xmlns="http://www.w3.org/2000/svg" xmlns:xlink="http://www.w3.org/1999/xlink" xml:space="preserve" style="fill-rule:evenodd;clip-rule:evenodd;stroke-linecap:round;stroke-linejoin:round;stroke-miterlimit:1.41421;">
    <g id="Layer1" transform="matrix(1,0,0,1,0,-132.283)">
        <g transform="matrix(1,0,0,1,-49.5145,34.0276)">
            <circle cx="127.413" cy="139.876" r="13.475" style="fill:rgb(162,199,239);stroke-width:2.67px;stroke:rgb(47,62,160);"/>
        </g>
        <g transform="matrix(1.43875e-16,0.507894,-0.507894,1.43875e-16,159.722,99.9044)">
            <path d="M145.699,196.151L151.557,211.055L139.841,211.055L145.699,196.151Z" style="fill:black;"/>
            <g transform="matrix(1,0,0,1,-50.0958,62.1892)">
                <path d="M195.734,142.527L195.734,170.351" style="fill:none;stroke-width:5.25px;stroke:black;"/>
            </g>
        </g>
        <g transform="matrix(1.43875e-16,0.507894,-0.507894,1.43875e-16,223.434,99.9044)">
            <path d="M145.699,196.151L151.557,211.055L139.841,211.055L145.699,196.151Z" style="fill:black;"/>
            <g transform="matrix(1,0,0,1,-50.0958,62.1892)">
                <path d="M195.734,142.527L195.734,170.351" style="fill:none;stroke-width:5.25px;stroke:black;"/>
            </g>
        </g>
        <g transform="matrix(0.507894,-2.2555e-16,2.2555e-16,0.507894,3.89854,93.3153)">
            <path d="M145.699,196.151L151.557,211.055L139.841,211.055L145.699,196.151Z" style="fill:black;"/>
            <g transform="matrix(1,0,0,1,-50.0958,62.1892)">
                <path d="M195.734,142.527L195.734,170.351" style="fill:none;stroke-width:5.25px;stroke:black;"/>
            </g>
        </g>
        <g transform="matrix(2.29029,0,0,2.29029,-223.645,119.283)">
            <path d="M105.65,18.625C105.661,18.579 105.686,18.507 105.686,18.447C105.686,18.327 105.566,18.327 105.542,18.327C105.53,18.327 104.947,18.375 104.888,18.388C104.684,18.399 104.505,18.422 104.291,18.435C103.992,18.458 103.909,18.471 103.909,18.685C103.909,18.805 104.005,18.805 104.172,18.805C104.756,18.805 104.767,18.911 104.767,19.032C104.767,19.102 104.743,19.197 104.731,19.233L103.003,26.135C102.956,26.315 102.956,26.338 102.956,26.41C102.956,26.672 103.157,26.719 103.278,26.719C103.48,26.719 103.634,26.565 103.694,26.433L104.231,24.275C104.291,24.013 104.363,23.763 104.422,23.5C104.553,23 104.553,22.988 104.78,22.643C105.006,22.297 105.542,21.582 106.461,21.582C106.938,21.582 107.105,21.94 107.105,22.416C107.105,23.083 106.639,24.383 106.377,25.099C106.268,25.385 106.209,25.54 106.209,25.754C106.209,26.291 106.58,26.719 107.152,26.719C108.261,26.719 108.678,24.968 108.678,24.896C108.678,24.836 108.63,24.788 108.557,24.788C108.452,24.788 108.439,24.824 108.38,25.027C108.105,25.98 107.664,26.482 107.188,26.482C107.068,26.482 106.878,26.469 106.878,26.088C106.878,25.779 107.019,25.396 107.068,25.266C107.282,24.693 107.818,23.286 107.818,22.596C107.818,21.88 107.402,21.344 106.494,21.344C105.817,21.344 105.219,21.666 104.731,22.285L105.65,18.625Z" style="fill:black;fill-rule:nonzero;"/>
            <path d="M112.886,25.866C112.886,25.015 112.798,24.499 112.536,23.99C112.188,23.291 111.543,23.116 111.106,23.116C110.105,23.116 109.739,23.863 109.628,24.085C109.342,24.666 109.327,25.452 109.327,25.866C109.327,26.39 109.35,27.193 109.731,27.829C110.097,28.416 110.684,28.568 111.106,28.568C111.488,28.568 112.169,28.449 112.568,27.661C112.863,27.09 112.886,26.382 112.886,25.866ZM111.106,28.344C110.836,28.344 110.288,28.218 110.119,27.383C110.032,26.93 110.032,26.183 110.032,25.771C110.032,25.222 110.032,24.666 110.119,24.229C110.288,23.418 110.907,23.338 111.106,23.338C111.377,23.338 111.925,23.474 112.082,24.196C112.178,24.633 112.178,25.23 112.178,25.771C112.178,26.24 112.178,26.954 112.082,27.399C111.917,28.233 111.368,28.344 111.106,28.344Z" style="fill:black;fill-rule:nonzero;"/>
        </g>
        <g transform="matrix(1,0,0,1,-19.9715,195.158)">
            <g transform="matrix(2.41372,0,0,2.41372,-124.675,-30.1533)">
                <path d="M93.521,21.724C93.139,21.796 92.995,22.083 92.995,22.31C92.995,22.597 93.222,22.692 93.39,22.692C93.749,22.692 94,22.382 94,22.059C94,21.557 93.426,21.329 92.924,21.329C92.194,21.329 91.788,22.047 91.68,22.274C91.405,21.377 90.664,21.329 90.449,21.329C89.229,21.329 88.584,22.896 88.584,23.159C88.584,23.206 88.632,23.266 88.715,23.266C88.811,23.266 88.835,23.194 88.859,23.147C89.265,21.82 90.066,21.569 90.413,21.569C90.951,21.569 91.059,22.071 91.059,22.358C91.059,22.621 90.987,22.896 90.843,23.469L90.437,25.107C90.258,25.825 89.911,26.482 89.277,26.482C89.217,26.482 88.919,26.482 88.668,26.327C89.098,26.243 89.194,25.884 89.194,25.741C89.194,25.502 89.014,25.358 88.787,25.358C88.5,25.358 88.189,25.609 88.189,25.992C88.189,26.494 88.751,26.721 89.265,26.721C89.839,26.721 90.246,26.267 90.497,25.777C90.688,26.482 91.286,26.721 91.728,26.721C92.948,26.721 93.593,25.155 93.593,24.892C93.593,24.832 93.545,24.785 93.474,24.785C93.366,24.785 93.354,24.844 93.318,24.94C92.995,25.992 92.302,26.482 91.764,26.482C91.346,26.482 91.118,26.171 91.118,25.681C91.118,25.418 91.166,25.227 91.357,24.438L91.776,22.812C91.955,22.095 92.362,21.569 92.912,21.569C92.936,21.569 93.27,21.569 93.521,21.724Z" style="fill:black;fill-rule:nonzero;"/>
            </g>
            <g transform="matrix(2.41372,0,0,2.41372,-124.675,-30.1533)">
                <path d="M97.009,23.318C97.009,23.103 96.993,23.095 96.778,23.095C96.451,23.414 96.029,23.605 95.272,23.605L95.272,23.868C95.487,23.868 95.917,23.868 96.38,23.653L96.38,27.742C96.38,28.037 96.356,28.132 95.598,28.132L95.32,28.132L95.32,28.395C95.646,28.372 96.332,28.372 96.69,28.372C97.049,28.372 97.742,28.372 98.069,28.395L98.069,28.132L97.79,28.132C97.033,28.132 97.009,28.037 97.009,27.742L97.009,23.318Z" style="fill:black;fill-rule:nonzero;"/>
            </g>
        </g>
        <g transform="matrix(1,0,0,1,-74.7385,44.7383)">
            <g transform="matrix(2.29029,0,0,2.29029,-55.9044,58.456)">
                <path d="M105.65,18.625C105.661,18.579 105.686,18.507 105.686,18.447C105.686,18.327 105.566,18.327 105.542,18.327C105.53,18.327 104.947,18.375 104.888,18.388C104.684,18.399 104.505,18.422 104.291,18.435C103.992,18.458 103.909,18.471 103.909,18.685C103.909,18.805 104.005,18.805 104.172,18.805C104.756,18.805 104.767,18.911 104.767,19.032C104.767,19.102 104.743,19.197 104.731,19.233L103.003,26.135C102.956,26.315 102.956,26.338 102.956,26.41C102.956,26.672 103.157,26.719 103.278,26.719C103.48,26.719 103.634,26.565 103.694,26.433L104.231,24.275C104.291,24.013 104.363,23.763 104.422,23.5C104.553,23 104.553,22.988 104.78,22.643C105.006,22.297 105.542,21.582 106.461,21.582C106.938,21.582 107.105,21.94 107.105,22.416C107.105,23.083 106.639,24.383 106.377,25.099C106.268,25.385 106.209,25.54 106.209,25.754C106.209,26.291 106.58,26.719 107.152,26.719C108.261,26.719 108.678,24.968 108.678,24.896C108.678,24.836 108.63,24.788 108.557,24.788C108.452,24.788 108.439,24.824 108.38,25.027C108.105,25.98 107.664,26.482 107.188,26.482C107.068,26.482 106.878,26.469 106.878,26.088C106.878,25.779 107.019,25.396 107.068,25.266C107.282,24.693 107.818,23.286 107.818,22.596C107.818,21.88 107.402,21.344 106.494,21.344C105.817,21.344 105.219,21.666 104.731,22.285L105.65,18.625Z" style="fill:black;fill-rule:nonzero;"/>
            </g>
            <g transform="matrix(2.41372,0,0,2.41372,-34.6386,55.2743)">
                <path d="M97.009,23.318C97.009,23.103 96.993,23.095 96.778,23.095C96.451,23.414 96.029,23.605 95.272,23.605L95.272,23.868C95.487,23.868 95.917,23.868 96.38,23.653L96.38,27.742C96.38,28.037 96.356,28.132 95.598,28.132L95.32,28.132L95.32,28.395C95.646,28.372 96.332,28.372 96.69,28.372C97.049,28.372 97.742,28.372 98.069,28.395L98.069,28.132L97.79,28.132C97.033,28.132 97.009,28.037 97.009,27.742L97.009,23.318Z" style="fill:black;fill-rule:nonzero;"/>
            </g>
        </g>
        <g transform="matrix(1,0,0,1,27.6733,195.158)">
            <g transform="matrix(2.41372,0,0,2.41372,-124.675,-30.1533)">
                <path d="M104.905,21.724C104.523,21.796 104.379,22.083 104.379,22.31C104.379,22.597 104.606,22.692 104.774,22.692C105.133,22.692 105.384,22.382 105.384,22.059C105.384,21.557 104.81,21.329 104.308,21.329C103.578,21.329 103.172,22.047 103.064,22.274C102.789,21.377 102.048,21.329 101.833,21.329C100.613,21.329 99.968,22.896 99.968,23.159C99.968,23.206 100.016,23.266 100.099,23.266C100.195,23.266 100.219,23.194 100.243,23.147C100.649,21.82 101.45,21.569 101.797,21.569C102.335,21.569 102.443,22.071 102.443,22.358C102.443,22.621 102.371,22.896 102.227,23.469L101.821,25.107C101.642,25.825 101.295,26.482 100.661,26.482C100.601,26.482 100.303,26.482 100.052,26.327C100.482,26.243 100.578,25.884 100.578,25.741C100.578,25.502 100.398,25.358 100.171,25.358C99.884,25.358 99.573,25.609 99.573,25.992C99.573,26.494 100.135,26.721 100.649,26.721C101.223,26.721 101.63,26.267 101.881,25.777C102.072,26.482 102.67,26.721 103.112,26.721C104.332,26.721 104.977,25.155 104.977,24.892C104.977,24.832 104.929,24.785 104.858,24.785C104.75,24.785 104.738,24.844 104.702,24.94C104.379,25.992 103.686,26.482 103.148,26.482C102.73,26.482 102.502,26.171 102.502,25.681C102.502,25.418 102.55,25.227 102.741,24.438L103.16,22.812C103.339,22.095 103.746,21.569 104.296,21.569C104.32,21.569 104.654,21.569 104.905,21.724Z" style="fill:black;fill-rule:nonzero;"/>
            </g>
            <g transform="matrix(2.41372,0,0,2.41372,-124.675,-30.1533)">
                <path d="M108.139,26.77C108.267,26.65 108.602,26.387 108.729,26.275C109.223,25.821 109.693,25.383 109.693,24.657C109.693,23.709 108.896,23.095 107.9,23.095C106.944,23.095 106.314,23.821 106.314,24.53C106.314,24.92 106.625,24.976 106.737,24.976C106.904,24.976 107.151,24.857 107.151,24.554C107.151,24.139 106.752,24.139 106.657,24.139C106.888,23.558 107.422,23.358 107.813,23.358C108.554,23.358 108.936,23.988 108.936,24.657C108.936,25.486 108.354,26.092 107.414,27.056L106.41,28.093C106.314,28.18 106.314,28.196 106.314,28.395L109.462,28.395L109.693,26.969L109.446,26.969C109.422,27.128 109.359,27.527 109.263,27.678C109.215,27.742 108.61,27.742 108.482,27.742L107.063,27.742L108.139,26.77Z" style="fill:black;fill-rule:nonzero;"/>
            </g>
        </g>
        <g transform="matrix(1,0,0,1,71.0896,194.753)">
            <g transform="matrix(2.41372,0,0,2.41372,-124.675,-30.1533)">
                <path d="M116.29,21.724C115.908,21.796 115.764,22.083 115.764,22.31C115.764,22.597 115.991,22.692 116.159,22.692C116.517,22.692 116.768,22.382 116.768,22.059C116.768,21.557 116.194,21.329 115.692,21.329C114.963,21.329 114.557,22.047 114.449,22.274C114.174,21.377 113.433,21.329 113.218,21.329C111.998,21.329 111.353,22.896 111.353,23.159C111.353,23.206 111.4,23.266 111.484,23.266C111.58,23.266 111.604,23.194 111.628,23.147C112.034,21.82 112.835,21.569 113.182,21.569C113.72,21.569 113.827,22.071 113.827,22.358C113.827,22.621 113.756,22.896 113.612,23.469L113.206,25.107C113.026,25.825 112.68,26.482 112.046,26.482C111.986,26.482 111.687,26.482 111.436,26.327C111.867,26.243 111.962,25.884 111.962,25.741C111.962,25.502 111.783,25.358 111.556,25.358C111.269,25.358 110.958,25.609 110.958,25.992C110.958,26.494 111.52,26.721 112.034,26.721C112.608,26.721 113.014,26.267 113.265,25.777C113.457,26.482 114.055,26.721 114.497,26.721C115.716,26.721 116.362,25.155 116.362,24.892C116.362,24.832 116.314,24.785 116.242,24.785C116.135,24.785 116.123,24.844 116.087,24.94C115.764,25.992 115.071,26.482 114.533,26.482C114.114,26.482 113.887,26.171 113.887,25.681C113.887,25.418 113.935,25.227 114.126,24.438L114.545,22.812C114.724,22.095 115.13,21.569 115.68,21.569C115.704,21.569 116.039,21.569 116.29,21.724Z" style="fill:black;fill-rule:nonzero;"/>
            </g>
            <g transform="matrix(2.41372,0,0,2.41372,-124.675,-30.1533)">
                <g>
                    <path d="M119.292,25.733C119.922,25.733 120.32,26.196 120.32,27.033C120.32,28.029 119.754,28.324 119.332,28.324C118.894,28.324 118.296,28.164 118.017,27.742C118.304,27.742 118.503,27.559 118.503,27.296C118.503,27.041 118.32,26.857 118.065,26.857C117.85,26.857 117.626,26.993 117.626,27.312C117.626,28.069 118.439,28.563 119.348,28.563C120.408,28.563 121.149,27.83 121.149,27.033C121.149,26.371 120.623,25.765 119.81,25.59C120.44,25.367 120.91,24.825 120.91,24.187C120.91,23.55 120.193,23.095 119.364,23.095C118.511,23.095 117.865,23.558 117.865,24.163C117.865,24.458 118.065,24.586 118.272,24.586C118.519,24.586 118.678,24.41 118.678,24.179C118.678,23.884 118.423,23.773 118.248,23.765C118.583,23.326 119.197,23.303 119.34,23.303C119.547,23.303 120.153,23.366 120.153,24.187C120.153,24.745 119.922,25.08 119.81,25.207C119.571,25.454 119.388,25.47 118.902,25.502C118.75,25.51 118.686,25.518 118.686,25.622C118.686,25.733 118.758,25.733 118.894,25.733L119.292,25.733Z" style="fill:black;fill-rule:nonzero;"/>
                </g>
            </g>
        </g>
        <g transform="matrix(2.41372,0,0,2.41372,-17.4653,112.554)">
            <path d="M125.152,27.941C124.829,28.395 124.363,28.801 123.777,28.801C123.634,28.801 123.06,28.778 122.88,28.228C122.916,28.24 122.976,28.24 123,28.24C123.359,28.24 123.598,27.929 123.598,27.654C123.598,27.379 123.371,27.283 123.191,27.283C123,27.283 122.582,27.427 122.582,28.012C122.582,28.622 123.096,29.041 123.777,29.041C124.973,29.041 126.18,27.941 126.515,26.614L127.686,21.951C127.698,21.891 127.722,21.82 127.722,21.748C127.722,21.569 127.579,21.449 127.4,21.449C127.292,21.449 127.041,21.497 126.945,21.855L126.061,25.37C126.001,25.586 126.001,25.609 125.905,25.741C125.666,26.076 125.272,26.482 124.698,26.482C124.028,26.482 123.968,25.825 123.968,25.502C123.968,24.82 124.291,23.9 124.614,23.039C124.745,22.692 124.817,22.525 124.817,22.286C124.817,21.784 124.459,21.329 123.873,21.329C122.773,21.329 122.331,23.063 122.331,23.159C122.331,23.206 122.378,23.266 122.462,23.266C122.57,23.266 122.582,23.218 122.629,23.051C122.916,22.047 123.371,21.569 123.837,21.569C123.944,21.569 124.148,21.569 124.148,21.963C124.148,22.274 124.016,22.621 123.837,23.075C123.251,24.641 123.251,25.036 123.251,25.322C123.251,26.458 124.064,26.721 124.662,26.721C125.008,26.721 125.439,26.614 125.857,26.171L125.869,26.183C125.69,26.889 125.57,27.355 125.152,27.941Z" style="fill:black;fill-rule:nonzero;"/>
        </g>
        <g transform="matrix(1,0,0,1,24.7955,34.0276)">
            <circle cx="127.413" cy="139.876" r="13.475" style="fill:rgb(162,199,239);stroke-width:2.67px;stroke:rgb(47,62,160);"/>
        </g>
        <g transform="matrix(1.43875e-16,0.507894,-0.507894,1.43875e-16,297.744,99.9044)">
            <path d="M145.699,196.151L151.557,211.055L139.841,211.055L145.699,196.151Z" style="fill:black;"/>
            <g transform="matrix(1,0,0,1,-50.0958,62.1892)">
                <path d="M195.734,142.527L195.734,170.351" style="fill:none;stroke-width:5.25px;stroke:black;"/>
            </g>
        </g>
        <g transform="matrix(0.507894,-2.2555e-16,2.2555e-16,0.507894,78.2085,93.3153)">
            <path d="M145.699,196.151L151.557,211.055L139.841,211.055L145.699,196.151Z" style="fill:black;"/>
            <g transform="matrix(1,0,0,1,-50.0958,62.1892)">
                <path d="M195.734,142.527L195.734,170.351" style="fill:none;stroke-width:5.25px;stroke:black;"/>
            </g>
        </g>
        <g transform="matrix(1,0,0,1,-55.4262,53.0166)">
            <g transform="matrix(2.29029,0,0,2.29029,-4.58314,49.8316)">
                <path d="M105.65,18.625C105.661,18.579 105.686,18.507 105.686,18.447C105.686,18.327 105.566,18.327 105.542,18.327C105.53,18.327 104.947,18.375 104.888,18.388C104.684,18.399 104.505,18.422 104.291,18.435C103.992,18.458 103.909,18.471 103.909,18.685C103.909,18.805 104.005,18.805 104.172,18.805C104.756,18.805 104.767,18.911 104.767,19.032C104.767,19.102 104.743,19.197 104.731,19.233L103.003,26.135C102.956,26.315 102.956,26.338 102.956,26.41C102.956,26.672 103.157,26.719 103.278,26.719C103.48,26.719 103.634,26.565 103.694,26.433L104.231,24.275C104.291,24.013 104.363,23.763 104.422,23.5C104.553,23 104.553,22.988 104.78,22.643C105.006,22.297 105.542,21.582 106.461,21.582C106.938,21.582 107.105,21.94 107.105,22.416C107.105,23.083 106.639,24.383 106.377,25.099C106.268,25.385 106.209,25.54 106.209,25.754C106.209,26.291 106.58,26.719 107.152,26.719C108.261,26.719 108.678,24.968 108.678,24.896C108.678,24.836 108.63,24.788 108.557,24.788C108.452,24.788 108.439,24.824 108.38,25.027C108.105,25.98 107.664,26.482 107.188,26.482C107.068,26.482 106.878,26.469 106.878,26.088C106.878,25.779 107.019,25.396 107.068,25.266C107.282,24.693 107.818,23.286 107.818,22.596C107.818,21.88 107.402,21.344 106.494,21.344C105.817,21.344 105.219,21.666 104.731,22.285L105.65,18.625Z" style="fill:black;fill-rule:nonzero;"/>
            </g>
            <g transform="matrix(2.41372,0,0,2.41372,-9.87394,47.3422)">
                <path d="M108.139,26.77C108.267,26.65 108.602,26.387 108.729,26.275C109.223,25.821 109.693,25.383 109.693,24.657C109.693,23.709 108.896,23.095 107.9,23.095C106.944,23.095 106.314,23.821 106.314,24.53C106.314,24.92 106.625,24.976 106.737,24.976C106.904,24.976 107.151,24.857 107.151,24.554C107.151,24.139 106.752,24.139 106.657,24.139C106.888,23.558 107.422,23.358 107.813,23.358C108.554,23.358 108.936,23.988 108.936,24.657C108.936,25.486 108.354,26.092 107.414,27.056L106.41,28.093C106.314,28.18 106.314,28.196 106.314,28.395L109.462,28.395L109.693,26.969L109.446,26.969C109.422,27.128 109.359,27.527 109.263,27.678C109.215,27.742 108.61,27.742 108.482,27.742L107.063,27.742L108.139,26.77Z" style="fill:black;fill-rule:nonzero;"/>
            </g>
        </g>
        <g transform="matrix(1,0,0,1,94.2525,34.0276)">
            <circle cx="127.413" cy="139.876" r="13.475" style="fill:rgb(162,199,239);stroke-width:2.67px;stroke:rgb(47,62,160);"/>
        </g>
        <g transform="matrix(1.43875e-16,0.507894,-0.507894,1.43875e-16,367.201,99.9044)">
            <path d="M145.699,196.151L151.557,211.055L139.841,211.055L145.699,196.151Z" style="fill:black;"/>
            <g transform="matrix(1,0,0,1,-50.0958,62.1892)">
                <path d="M195.734,142.527L195.734,170.351" style="fill:none;stroke-width:5.25px;stroke:black;"/>
            </g>
        </g>
        <g transform="matrix(0.507894,-2.2555e-16,2.2555e-16,0.507894,147.666,94.3266)">
            <path d="M145.699,196.151L151.557,211.055L139.841,211.055L145.699,196.151Z" style="fill:black;"/>
            <g transform="matrix(1,0,0,1,-50.0958,62.1892)">
                <path d="M195.734,142.527L195.734,170.351" style="fill:none;stroke-width:5.25px;stroke:black;"/>
            </g>
        </g>
    </g>
</svg>
